<?xml version="1.0" encoding="utf-8"?>
<!-- Generator: Adobe Illustrator 27.4.0, SVG Export Plug-In . SVG Version: 6.00 Build 0)  -->
<svg version="1.1" id="Capa_1" xmlns="http://www.w3.org/2000/svg" xmlns:xlink="http://www.w3.org/1999/xlink" x="0px" y="0px"
	 viewBox="0 0 490.4 414.6" style="enable-background:new 0 0 490.4 414.6;" xml:space="preserve">
<style type="text/css">
	.st0{fill:#C4CDC5;}
	.st1{fill:#C4CDC6;}
	.st2{fill:#C3CDC6;}
	.st3{fill:#C5CDC5;}
	.st4{fill:#C4CCC5;}
	.st5{fill:#FDD799;}
	.st6{fill:#FCD79A;}
	.st7{fill:#CBCEBE;}
	.st8{fill:#FCD799;}
	.st9{fill:#FBD69B;}
	.st10{fill:#CBCDC0;}
	.st11{fill:#FAD69B;}
	.st12{fill:#CFCEBD;}
	.st13{fill:#FBD79A;}
	.st14{fill:#FBD69C;}
	.st15{fill:#E6D3A8;}
	.st16{fill:#CDCEBE;}
	.st17{fill:#FFA9B4;}
	.st18{fill:#E2BABD;}
	.st19{fill:#CACBC1;}
	.st20{fill:#D1C5C1;}
	.st21{fill:#CACDC0;}
	.st22{fill:#F8D2A0;}
	.st23{fill:#CBCDC1;}
	.st24{fill:#FDD09E;}
</style>
<g>
	<path class="st0" d="M228.5,365.9c-3.1,1.4-5.6,0.7-8.8-0.5c-4.3-1.7-8.3-4.5-13.1-4.5c-3.1,0-5.4-2.3-7.9-3.5
		c-12.5-5.9-25.4-11.2-35.8-20.7c-3.1-2.9-6.9-5.1-10.4-7.7c-3-3.8-6.8-6.8-10.2-10.2c-6.2-6.3-12.3-12.7-18.1-19.3
		c-2.8-3.1-5.6-7-7-11.6c-1.3-4.4-5-8-7-12.3c-2.6-5.5-7.3-10-8-16.6c-0.2-2.3-1.9-5.3-3.4-7.1c-2.7-3.2-1.9-6.5-2.2-9.8
		c4.1-1.8,6.6-0.7,9.1,4c0.9,1.6,1.3,3.3,1.3,5.1c0.4,1.9-1.1,3.8,0.3,5.7c2.1,0,2.5-2,3.6-3c1.6-1.5,3.3-2.4,5.2-0.8
		c1.7,1.5,1.7,3.5,0.3,5.3c-1.9,2.5-4.1,4.7-5.2,7.7c-0.1,3.1,3.1,4.6,3.8,7.3c3.4,1.7,5.4,0.9,7.3-2.7c0.9-1.9,1.2-3.8,0.4-5.7
		c-0.3-0.1-0.5,0.1-0.5,0.5c-0.5,2.4-0.7,5.6-4.2,4.9c-3.1-0.7-2.7-3.7-2.5-6.2c0.5-5.2,4.5-9.3,5-14.4c-5.4,3-7.8,2.2-11.9-4
		c-0.5-2.6,0-4.6,2.9-5.4c1.4-0.1,2.5,0.8,3.8,1c1.3-1.7-0.2-2.7-0.7-4c-0.7-1.6-0.1-2.7,1.4-3.4c0.6-0.4,1.1-0.8,0.7-1.5
		c-0.6-1-2.2-1.6-2.3-2.5c-0.7-5.1-4.3-6.5-8.5-8.1c-2.8-1.1-2.6-3.6,0.3-5.1c1.9-1,4.1-1.2,6.1-1.9c1-0.2,1.9-0.6,2.9-0.5
		c3.1,0.8,3.9,3.4,4.6,5.9c0.5,1.7,0.8,3.5,1.7,5.2c2.1,4.3,4.4,6,10.1,4.8c6.9-1.4,13.1-5,20.5-5.3c3.8-0.2,8.6-2.7,12.7-4.4
		c8.7-3.6,17.9-5.9,26.6-9.6c6.5-2.8,13.7-4.4,20.4-7.1c6.8,0.8,11.9-4.3,18.4-5.2c3-0.4,3.1-4.4,1.2-6.6c-4.5-5.5-9.1-11-15.7-14.3
		c-7-3.5-14.5-5.4-22.1-7.2c-2.9-0.7-6.1-1.3-5.5-5.5c1.4-1.6,3.8-1.4,5.3-2.8c3.3-1.3,6.1,0.8,9.2,1.4c1.3,0.1,2.7,0,3.9,0.6
		c7.5,3.9,15.8,5.7,24,7c5.3,0.8,5.8-0.2,6.1-5.5c0.4-7.1-3.3-13-5.5-19.3c-0.3-1.6-0.7-3.2-0.3-4.9c0.9-5.1,1-5.2,5.7-3.3
		c1.4,0.9,2.3,2.1,2.9,3.6c0.9,4,3.4,6.6,7.2,8c1.6,0.3,3,1.1,4.5,1.9c6.5,3.7,7.6,3.5,12.6-2.3c3.3-3.7,3.4-8.1,3.2-12.6
		c0.1-1.6-0.1-3.3,1-4.7c3-1.7,4.7-0.3,5.6,2.5c0.5,1.5,0.4,3.3,1.5,4.7c0.3,0.4,0.4,0.9,0.6,1.4c1.7,3.1,0.1,8.2,5.5,9
		c6.3,0.6,12.4,0.1,17.8-3.8c5.4-3,6.8-9,10.1-13.6c0.3-0.7,0.8-1.3,1.4-1.8c2-0.9,4-1.1,5.2,1c1.1,2,0.3,4.1-1.2,5.5
		c-4.4,4.1-6,9.7-8.3,15c-0.2,4.2-2.1,8-2.8,12c-3.1,4-7.6,2.6-11.7,3c-4.1-0.6-8.1-0.2-12.2,0.9c-6.3,1.7-12.9,0.5-19.3,0.7
		c-4.6,0.1-6.9,1.9-5.9,6.8c0.2,3.9,0.2,7.9,0,11.8c-1.2,10.3,0.4,20.5,0.1,30.7c-0.1,3.3-0.1,6.7-3.3,8.9c-4.3,4-7.1,9.6-12.6,12.4
		c-0.5,0.2-0.9,0.3-1.3,0.6c-1.3,1.1-2.1,3.2-4.3,2.4c-2.3-0.8-1.7-3.2-2-5c-0.5-3.9,1-7,3.5-9.9c2.6-3,3.3-11.9,1.3-14
		c-3.1-3.5-10.9-4.2-15-1.5c-0.7,0.4-1.4,0.6-2.2,0.6c-4.4-0.2-8.4,1.1-12.1,3.4c-4.1,2.6-9,3.1-13.5,4.4c-3,0.9-5.9,1.9-8.5,3.8
		c-8.8,1.4-17.1,4.6-25.4,7.7c-1.4,0.5-2.9,1-4.3,0.9c-4.3-0.2-8.1,1.2-11.6,3.7c-2.1,1.5-4.4,2.1-6.9,2.4c-6.2,0.8-8.1,3.4-7.7,9.7
		c0.2,3.3,2.5,6.3,1.3,9.7c-0.2,0.8-0.7,1.4-1.3,2c-0.1,0.1-0.8,0.3-0.2,0.7c0.1,0,0.5-0.4,0.8-0.5c1.7-0.1,2.6,1,2.7,2.3
		c0.3,3,2.4,4.9,3.9,7.2c5.3,11.6,11.2,22.8,22.6,29.7c0.5,0.2,0.9,0.4,1.3,0.7c7,3.7,13.5,8.6,21.8,9.4c2.4,1.2,2.8,3.2,2,5.6
		c-0.2,0.5-0.6,0.9-1,1.2c-3.4,1.4-7.1,1-10.6,1.9c-1.7,0.5-2.9-0.5-2.8-2.4c0.3-3.9-1.6-2.7-3.4-1.5c-1.8,1.2-3.5,2.4-5.8,2.2
		c-2.9-0.4-5.6-1.5-8.2-2.9c-2.2-1.7-3.5-4.2-5.4-6.1c-0.5-0.7-1-1.4-1.6-2c-0.6-0.6-1.3-1.1-1.8-1.8c-1.2-1.9-3.4-3.1-3.6-5.6
		c0.7-2.2,2-2.9,2.9-2.5c-3.5-1.1-3.1-6.2-5.4-9.4c-0.8-1.2-1.2-2.5-1.4-3.9c-0.3-1.7-1.1-3-2.8-3.7c-1.3-0.8-2.6-0.9-4.1-0.6
		c-5.8,2.7-7,5.9-4.3,11.1c0.8,1.6,1.8,3.1,3.2,4.3c1,1.3,2.5,1.7,4,1.9c2.7,0.9,3.2,4.3,5.8,5.4c1,0.7,1.8,1.5,2.3,2.6
		c0.1,2.7,0.9,4.7,4.2,3.7c1.2,0.2,2.2,1,3.1,1.7c1.8,2.4,4.2,4.4,5,7.5c0.5,1.5-1.1,3.3,0.8,4.5c1.8,1.1,2.3,4.1,5.2,4
		c1-2.5-2.1-3.5-1.5-5.6c0.6-1.6,1.8-2.3,3.3-2.5c2.9-0.1,4.1,1.7,4.5,4.2c0.4,1.9,0.7,3.9,0.6,5.9c-0.2,3,1.2,4.1,4.1,4.2
		c2.8,0.2,6.3-0.3,4.1,4.9c-0.9,2.2,2.4,3.5,4.5,4.3c1.3,0.5,2.6-0.3,3.9-0.3c3.8,0.3,5.3,3.7,8,5.5c2.4,1.4,5,2.3,7.2,3.9
		c2.4,1.4,5.2,1.7,7.6,3.1c1.1,0.8,2.3,1.5,3.5,2.2c4.8,3,9.7,5.1,15,0.9c1.7-0.7,3.4-1.2,4.9,0.6c1,1.8,0.5,4.1,1.6,5.9
		C229.3,363.5,229.5,364.7,228.5,365.9z"/>
	<path class="st1" d="M96.5,239c-1.4-0.1-3-0.3-2.8-2.1c0.4-5.9-3-11.2-2.2-17.2c0.4-3,0-6-2-8.5c-1.1-1.4-0.9-3.2-0.9-4.8
		c0-10.1,0-20.3,0-30.4c0-2,0.2-3.8,1.3-5.7c1-1.6,1.7-3.9,1.5-5.7c-0.9-7.1,0.8-14.1,2.6-20.5c1.9-6.8,2.5-14.4,7-20.3
		c2.2-2.9,2-6.5,4-9.6c2.4-3.7,4.2-8,6.5-12c2.9-5.2,5.7-10.4,8.8-15.5c1.7-2.8,3.6-5.3,6.2-7.4c3-2.4,4.5-6.1,7-9
		c7.6-8.7,15.9-16.4,25.2-23.3c4.4-3.3,9.1-6.4,13.2-10.4c3.3-3.1,8.5-4.1,12.7-6.4c5.3-2.9,10.8-5.4,16.3-7.8
		c3.6-1.6,7.6-3.2,11.3-4.6c5.1-1.9,11.1-0.9,15.6-4.8c0.8-0.7,2.5-0.6,3.8-0.6c3.5,0,6.9-0.1,10-2.3c1-0.8,2.9-0.7,4.3-0.7
		c12.5,0,24.9,0,37.4,0c1.6,0.9,3.5,0.8,5.2,1.1c1.2,0.2,2.3,0.6,1.6,2.2c-2.5,2-5.4,1.4-8.1,0.9c-5.7-1-11.4-1.7-17,0.7
		c-3.4,1.5-6.8-0.2-10.3-0.4c-3.3,0-6.1,1.5-8.8,3.1c-2.5,2.4-2.4,5.7-3.3,8.7c-0.7,2.4,1,3.4,3,3.6c3.9,0.5,8,0.9,11.8-0.8
		c2.6-1.1,5-0.6,7.7-0.2c6.5,0.9,13.1,2.3,19.6-0.1c2.5-0.9,5.1-1.6,7.8-1.5c4.9,0.2,9.1-0.7,13.3-4c4.2-3.3,10.1-2.8,15.4-2.4
		c1.4,0.1,2.6,0.3,3.8-0.5c3-0.5,4.9,1.7,7.2,3c1.3,2.1-1.5,3-1.3,4.8c-1.4,2.1,2.2,4.2,0,6.3c-4.1,0.3-5-2.5-5.6-5.7
		c-0.2-0.8,0.4-2.3-0.6-2.5c-1.8-0.3-1.3,2.2-2.7,2.7c-7.4,2.4-14.7,5.2-22.6,3.8c-4.8-0.8-9.1,1.1-13.5,2.2
		c-3.9,1-7.6,1.8-11.6,0.6c-2.1-0.6-4.3-0.5-6.1,0.9c-0.5,0.3-1,0.5-1.5,0.6c-1.9,0.6-3.9,0.3-5.8,0.2c-0.8,0.1-1.6,0.2-2.5,0
		c-8,0.5-16,0.2-23.9,0.2c-3.2,0-6.3,0.5-9.2,1.9c-8.3,4-17.6,6.1-24.9,12.1c-1.3,1.1-2.9,1.6-4.7,0.9c-3.2-2.6-1.7-5.2,0.6-7
		c3.8-3.1,7.4-6.7,12.5-7.8c-5.9,0.6-9.4,5.2-13.4,8.6c-3,2.5-6.4,4.7-8.8,7.9c-1.4,2-4,2.5-6.1,0.4c-1.7-1.8-1-5.4,1.2-7.1
		c1-0.7,2.1-1,3.2-1.4c0.9-0.3,1.9-0.5,3-1.5c-3.7-0.8-8.2,1.3-10.2-3.6c-0.2-0.6-1.3-0.1-1.7,0.4c-4.3,6.9-11.8,9.4-18.2,13.5
		c-0.4,0.3-0.7,0.7-0.5,1.6c3.8,0.6,7,2.9,9.8,5.7c1.3,1.3,2.1,2.7,1.2,4.4c-1,1.9-3,2.8-4.6,1.9c-4.2-2.3-10.2-0.8-13.1-6.1
		c-0.6-1.2-1.7-0.9-2.4,0c-1,1.1-0.7,2.2,0.4,3c2.5,1.9,3.3,4.5,3,7.5c-0.1,1.4-0.7,2.6-2,3.2c-1.6,0.7-2.8,0-4.1-0.9
		c-1.4-1.1-1.5-3.9-3.6-3.7c-2.6,0.3-3,3.3-4.5,5c-0.4,0.5-0.8,1-0.7,1.8c0.4,0.6,0.9,0.3,1.2-0.1c1.8-1.8,3.7-4.1,6.3-1.7
		c2.1,2,0.6,4.3-0.6,6.3c-1.4,2.4-3.2,4.6-3.5,7.5c1.2-4.9,5.2-8.6,8.3-11.2c3.3-2.7,7-5,9.6-8.6c0.5-0.6,1.6-1.1,2.3-0.8
		c4.9,1.6,7.9-2.8,11.9-3.8c1.7-0.4,1.7-1.4,1.2-3c-0.8-2.6,3-7.7,5.6-8c0.5-0.1,1.2-0.2,1.4,0.2c3.3,4.3,4.9,0.4,7-1.4
		c2.2-2,4.2-4.7,7.6-2c1.3,2.2-0.5,3.4-1.6,4.7c-1.4,1.6-3,3.1-4.5,4.7c-2.7,2.9-2.8,5.8-0.2,8.9c7.5,8.9,13.8,18.7,20.6,28.1
		c2.6,3.6,5.9,6.7,8.5,10.4c2.1,2.9,3.7,5.9,4.5,9.3c0.1,2.2-0.3,4.2-2.7,5.2c-2.3,0.2-4-1.1-4.9-2.8c-5.4-9.2-14-16.2-19.1-25.5
		c-4.2-7.7-10.1-13.9-15.3-20.7c-1.4-2.6-3.4-2.9-5.9-1.6c-12.8,6.7-24.3,14.8-32,27.6c-3.3,5.5-7,10.8-9.3,16.9
		c-0.7,1.7-1.6,4-4.3,2.8c-2.3-3.1-2.4-6,0.3-9c1.3-1.5,1.5-3.1,0.6-5c-1.7-3.3-0.9-7.3-3-10.8c-1.3-2.1,1.1-4.2,3-5.7
		c1.1-0.9,2.3-2.1,0.9-3.3c-1-0.9-2.1,0.4-2.9,1.2c-3.7,3.3-4.3,9.3-1.4,14.2c0.8,1.3,1.7,2.4,2.2,3.9c1.7,5.4-2.2,10.5-7.8,10.4
		c-2.3-0.1-3.3-1.3-3.1-3.5c0.1-1.6,0.9-3.2,0.2-4.8c-7.2,3.2-6.5,12-0.2,16c2.4,1.5,3,3.4,2.5,5.9c-0.6,3.1-3.2,4.1-5.8,4.8
		c-2.8,0.7-3.2-1.8-3.8-3.6c-0.7-1.9-1.5-3.6-3.1-5.2c-1.2,1.3-0.6,2.6-0.6,3.8c0,2.4,0.2,5.1-1.4,6.7c-5.7,5.6-4.8,13.2-6.2,20
		c-2.1,10.2-2.1,20.8-4.9,30.9c-0.5,1.9-0.6,4-0.1,5.9c3.2,12.9,3,26.2,4.9,39.2C98.8,234.1,99.3,237,96.5,239z"/>
	<path class="st2" d="M96.5,239c0.5-2.9,0.5-5.8,0.1-8.8c-1.1-9.1-2.2-18.3-2.2-27.5c0-0.6-0.2-1.3-0.5-1.9
		c-3.2-7.6-2.4-15-0.1-22.8c1.9-6.6,2.1-13.7,2.6-20.6c0.4-5.5,2.6-10.7,2.1-16.2c-0.1-1.6,1-2.9,2.2-3.7c3.9-2.7,4.1-6.5,3.5-10.7
		c-0.2-1-0.5-2-0.4-2.9c0.2-1.1,0.7-2.3,2.1-2.5c1.4-0.1,2,0.9,2.5,2c1.4,2.9,3.9,5.4,3.3,9.1c2.1,0.1,2.9-1.6,4.6-1.9
		c2.3-0.4,2.1-2.8,1.5-4.9c-1-3.1-1.8-0.6-2.9-0.2c-1.9,0.6-2.3-1-2.3-2.3c0.1-2.3-0.9-4.1-2-6c-1.9-3.4,2.4-12.5,6.2-13.4
		c1.8-0.5,2.3,0.7,2.6,2.2c0.4,1.9-0.6,3.6-1.1,5.3c-0.2,0.9-0.9,2,0.3,2.6c0.6,0.3,1.7,0.2,2.4-0.1c6.6-2.6,7.4-6.2,2.8-11.8
		c-4.5-5.5-1.1-17.2,5.7-19.2c1.2-0.4,2.6-0.6,2.7,1c0.2,2.1,1.3,4.6-1.3,6.3c-5.2,3.3-5.2,3.3-1.1,7.4c0.3,0.3,1,1,1,1
		c-3.1,3.7,0.1,6.4,1.4,9.4c0.2,0.4-0.3,1.5-0.8,1.7c-4.9,2.1-3.2,6.1-2.9,9.7c0.7,0.8,1,1.7,0.7,2.8c-1.4,2.6-3.2,3.8-6.3,0.8
		c1.2,2.8,0.6,5.2,0,7.5c-0.4,1.7-0.3,3.1,0.6,4.7c3.9,6.5,3.1,8-4.2,9.2c-0.8,0.1-1.6,0.3-2.7,0.8c4.6,2.3,4,5,0.7,7.8
		c-0.9,0.8-1.6,1.6-1.8,2.9c-0.5,2.8-2.1,3.4-4.7,2.7c-1.8-0.5-3.9-1.3-5.2,1.9c4.2-0.1,9.4-2.9,9.9,4.2c-0.1,0.8-0.4,1.4-0.9,2
		c-0.2,0.2-0.5,0.5-0.8,0.6c-7.4,3.5-8.8,7.8-4.6,15.3c1.6,2.8,2.9,5.6,2.5,8.9c-0.3,2.2-1.2,3.9-3.5,4.3c-2.6,0.4-3.8-1.5-4-3.5
		c-0.3-3.2-1.8-4.7-4.7-6.1c-3-1.4-2-4.9-1.8-7.6c0.2-2.4,1.1-4.7,0.4-8.3c-0.6,14.4,0,27.7,0.9,41c1.4-2.7,1.4-2.7,0.9-5.7
		c-0.7-3.8-1.5-7.5-1.5-11.3c0-1.2,0-2.6,1.3-2.9c1-0.3,1.8,0.7,2.4,1.5c1.5,2.4,3.4,4.5,5.4,6.5c1.6,1.5,2.3,3.4,1.2,5.4
		c-1.6,2.8-0.3,4.6,1.5,6.6c1.3,1.3,3.5,2.4,2,4.9c-1.3,0.4-2.6,0.7-3.8,1.2c-1.3,0.5-3.5,0.3-3.6,2c-0.1,2.1,2.4,1.8,3.8,2.4
		c2.1,1,4.6-0.3,7.2,1.2c-3.3,3.1-2.6,5.5,1.1,7.5c1.5,0.9,2.9,2.5,1.8,4.6c-0.6,1.3-1.7,0.2-2.6,0c-0.9-0.8-2.2-0.8-2.5,0.2
		c-1.3,3.5-4.2,3.8-7,3.4c-3.7-0.6-6.7,3-10.5,1.5C96.5,239.7,96.5,239.3,96.5,239z"/>
	<path class="st3" d="M290.3,12.3c-2-1.8-5.3-0.4-7-3c3.8,0,7.7-0.4,11.5,0.1c7.1,0.8,14.1,2,20.5,5.4c0.7,0.4,1.6,0.5,2.4,0.4
		c6.5-0.5,11.5,3.6,17.2,5.1c6.2,1.6,11.6,4.7,17.1,7.3c5.8,2.7,11.6,5.6,17.1,9.1c10.4,6.5,19,15.4,28.7,22.8
		c6,4.6,9.1,11.5,14.5,16.8c7.8,7.6,13.3,17.1,18.3,26.8c2.9,5.6,5,11.5,8.7,16.7c1.5,2.1,1.9,5.2,2.6,7.8c1.4,5,3.2,9.9,4.8,14.8
		c1.6,5.2,1,11.1,4.6,15.7c1.9,2.4,0.5,5.8,0.8,8.8c-5.3,0.5-10.7-0.7-16,1.7c-3.1,1.4-6.2-2.8-9.9-1.7c-2.3-2.1-1.9-4.6-1.1-7.1
		c2.1-2.9,4.9-2,6.2,0c2.6,3.9,5.3,2.4,8.2,1.2c3.2-1.3,4.8-4.1,4.3-7.2c-1.1-5.8-2-11.9-4.6-17.1c-3.6-7.2-5.9-14.7-8.5-22.2
		c-1.2-3.5-4.2-6.2-5.4-9.8c-0.2-0.6-1-0.7-1.7-0.8c-5.9-1-7.3-2.3-7.7-8.1c-0.2-2.3-0.6-3.6-3-4.3c-2.1-0.6-2.8-2.4-1.4-4.3
		c1.5-2.2,0.6-3.8-1-5.2c-4.7-3.8-7.3-10-13.4-12.4c-0.6-0.2-1.2-0.8-1.4-1.4c-3.1-8.8-11.4-12.1-18.1-17.1
		c-0.9-0.7-1.5-1.7-2.1-2.6c-4-6-6.1-6.2-10.3-0.6c-5,1.7-6.5,1-7.8-3.5c0.4-2,2.1-2.7,3.6-3.8c1.6-1.6,0.2-3.6-0.8-2.6
		c-3.8,3.3-9.6,1-12.7,5.2c-0.3,0.4-0.6,0.7-0.7,1.2c0.6,1.9,1.4,1.8,2.4,0.3c0.6-1,1.3-1.9,2.5-2.3c1.3-0.2,2.4,0.2,3.4,1
		c2.1,2.3,0.6,3.9-1.2,5.3c-1.4,1.2,0,3.5-1.8,4.6c-1.1,0.3-1.9-0.2-2.8-0.7c-5.7-3.1-10.2-7.8-16.4-10.1c-1.4-0.5-2.6-1.5-2.7-3.2
		c2.7-1.7,2.2-4,1.3-6.4c-0.3-2-6.2-3.1-1-6c2.5-2.2,4.4-1.1,6.2,1.1c1.4,1.8,3.2,3.3,5.7,3.3c0.4,0,0.7-0.7,0.6-1.2
		c-0.6-2.5-2.8-3.4-4.8-4.6c-1.8-1.1-4.3-0.7-5.7-2.6c-3.2,1-4.6-2.2-7-3c-5.7-0.7-11.2-2.3-16.8-2.8c-4.7-0.4-9.6-0.4-14-2.6
		C292.9,14.2,291.2,13.8,290.3,12.3z"/>
	<path class="st1" d="M96.5,240c3.8-2.5,8-3.6,12.5-3c1.8,0.2,3-0.5,3.8-2.3c1.1-2.3,2.5-1.5,3.6,0.3c-1.6,0-1.5,0.9-1,2
		c0.3,2.3-1.5,3-3,4c-3.2,0.3-3,2.7-3,5c-0.2,2.7-0.3,5.6-4,6c-0.5-6.6-3.4-9.8-9-10C96.5,241.3,96.5,240.6,96.5,240z"/>
	<path class="st4" d="M368.3,338.8c0,1.9,2.4,2.9,1.8,4.9c-5.1,3.6-10.7,6.1-16.7,8.2c-3,1-6.1,2.3-8.3,4.9
		c-5.4,2.4-11.5,3.3-16.5,6.7c-1.1,0.7-2.9,0.3-4.4,0.4c-0.9,0.5-1.8,0.5-2.6-0.3c-2.6-7.2-1.7-14.6-0.6-21.9
		c0.4-0.8,0.9-1.6,1.7-1.7c11.1-2.3,19.8-8.6,27.6-16.3c0.9-0.9,2.2-1.5,3.5-1.7c1.6-0.2,3,0.4,4,1.5
		C362,328.1,367.1,332.1,368.3,338.8z"/>
	<path class="st2" d="M228.4,365.9c-0.3-1-0.7-2.1-1-3.1c0.5-2.2-0.2-4.2-0.5-6.3c-0.6-1.9-2.1-3.7-1.2-5.9c2.8-3.2,6.5-4.9,10-7.1
		c4.3-0.2,8.7-0.1,13-0.1c3.2,0,4.9,1.5,5.5,4.6c1.2,6.8-0.6,13.5-0.6,20.3c0,4.9-4.2,3.1-7.1,1.5
		C240.1,369.7,233.6,370.8,228.4,365.9z"/>
	<path class="st2" d="M246.3,369.8c5,1.3,6.6-0.6,6.1-5.6c-0.5-5.1-0.2-10.3,0-15.4c0.1-3.1-1.1-4.1-4.1-4c-4.6,0.2-9.3,0-13.9,0
		c-2.5-0.7-4.8-1.5-2.5-4.7c7.9,0.5,15.8,0.1,23.5,2.8c1.3,6,2.2,11.9-0.5,17.8c-0.4,0.8-0.7,2.3-0.2,2.9c3.3,4.1-0.1,6.5-2.2,9.3
		C249.8,372.9,247.3,372.9,246.3,369.8z"/>
	<path class="st5" d="M114.5,166.1c0-0.6,0-1.3,0.1-1.9c2.5-4.6,2.4-10.2,5.8-14.5c3-3.8,5.3-5.2,10-3.3c3.4,1.3,6.7,2.8,10.1,4.1
		c1.4,0.9,1.7,3,3.6,3.3c8.2,1.6,15,7.4,23.6,7.7c3,0.1,5.5,1,7.1,3.8c1,1.7,2.4,2.9,4.4,2.7c6.4-0.9,12.1,1.9,17.9,3.8
		c4.7,1.5,8.9,4.5,13.8,5.7c0.8,0.2,1.7,0.6,2.1,1.3c2.2,4.9,7.1,5.4,11.4,6.9c2.4,0.8,4.5,2,3.8,4.9c-0.7,2.7-3.1,3.2-5.6,3.1
		c-2.1-0.1-4.2-0.9-6.1-0.2c0.1,0,0.4-0.2,0.8-0.1c3.2,0.2,7.7-0.7,8.5,3.3c0.9,4.4-4,3.9-6.7,5c-2.3,1-4.5,2-6.5,3.6
		c-6.2,2.3-11.5,7.1-18.8,6.2c-2.9-0.4-3.9,3-6.7,3.9c-7.3,2.3-14.9,3.8-21.7,7.6c-1.2,0.7-2.9,0.3-4.4,0.4
		c-1.3,0.1-3.2-0.4-3.8,0.7c-2.1,4.7-5.9,3.6-9.7,3.3c-1-0.1-2.4-0.2-2.9,0.3c-4.2,4.8-10.5,2.9-15.5,5.3c-2.2,1.1-5.2,1.5-7-2.9
		c-1.4-3.6-3.5-6.8-4.2-10.8c-0.3-1.7-1.1-3.6-3.3-4c-3-6-4.6-12.6-4-19c0.8-8.1-0.7-16.4,1.9-24.4
		C113.1,169.7,113,167.6,114.5,166.1z"/>
	<path class="st5" d="M310.2,131.1c0,0.6-0.1,1.2-0.1,1.8c-3.9,2.9-5.1,8.4-10.2,10.2c-1.5,1.3-3.4,2.2-4.6,3.8
		c-3,4.1-7.3,3.5-11.3,2.8c-4.1-0.7-5.3-4.3-6-7.7c-0.9-4.7-1.7-9.5-1.7-14.3c0-24.6,0.2-49.2-0.1-73.8c-0.1-9.1,1.3-16.5,11.8-18.5
		c0.8-0.2,1.4-0.9,2.2-1.2c6-1.3,12-1.1,18-0.2c3.3,2.1,7.1,2.8,10.7,3.6c13.1,2.9,23.6,10.5,33.6,18.7c6.5,5.4,6.8,9.9,1.7,16.8
		c-8.5,11.8-17.3,23.5-26,35.2c-4.8,6.5-8.6,13.8-14.3,19.6C312.9,129.2,311.5,130.1,310.2,131.1z"/>
	<path class="st5" d="M128.5,258.9c0.8-4.7-2.7-8.7-2.1-13.5c0.6-4.9,3.5-8.7,8.3-8.3c4.5,0.3,7.3-2.7,10.8-4.3
		c0.7-0.3,1.4-1.5,2-1.4c7,0.8,12.9-3.2,19.4-4.4c1.6-0.3,3.5-0.1,4.7-1.3c3.8-3.4,8.2-2.9,12.7-2.8c3.8-0.8,7.4-2.4,11.5-2.1
		c4.2,0.3,6.4-3.8,10.1-4.8c2.4-0.7,4.9-3.9,5.1,1.7c0.1,1.7,1.2,0.3,1.6,0.2c4.8-1.4,9.2,0.6,13.6,2c2.6,0.8,3.8,2.9,2.4,5.5
		c-1.2,2.3-1.1,4.3-0.4,6.7c1.2,4.4-0.7,8.2-2.9,11.7c-1.7,2.6-4,4.8-4.8,8.1c-0.4,1.5-1.5,2.8-3.2,2.5c-1.8-0.2-2.2-1.9-2.4-3.4
		c-0.4-2.5,0.5-4.5,2.1-6.4c1.5-1.7,3.6-3,4.6-5.9c-2.9,0.6-4.6,2.8-6.9,3.5c-1.5,0.5-0.8,1.9-0.4,3c0.8,2,0.6,4.1-0.7,5.6
		c-4,4.7-6.5,10.4-9.8,15.5c-1.6,2.4-3.7,4.3-6,5.9c-1.3,0.9-3,1.6-2.8,3.7c0.4,2.1,0.6,4.2-0.5,6.2c-0.4,0.7-0.9,1.6-1.6,1.8
		c-3.2,0.9-4.3,2.3-2,5.3c0.9,1.2,0.9,2.9-0.6,3.9c-1.5,1-2.8,0.2-4.1-0.7c-2.1-1.4-1.8-4.6-4.5-5.4c-2.7,3.5-1.7,7.5-1.9,11.3
		c-0.4,0.7-1.1,1.2-1.8,1.5c-5.7,1-11.1,4.1-17.1,1.8c-0.8-0.3-1.5-0.5-2.2-0.9l0,0c-0.9-1-0.6-2.1,0.4-2.5c4.1-1.9,3-3.6,0.2-5.8
		c-1.8-1.4-3.6-3-5-4.8c-1.5-1.9-2.8-3.2-5.4-1.6c-1.4,0.9-3.4,0.8-3.7-1c-0.4-3-1.2-4.7-4.6-5.5c-1.8-0.4-1.1-3.3,0.4-4.6
		c2.6-2.3,3.8-4.7,2.5-8.3c-0.6-1.7,0.4-3.5,1.2-5.2c0.8-1.6,2.1-3.1,1.4-5.5c-3,2.3-4.6,5-5,8.5c-0.5,3.7-1.9,6.8-6.5,6.3
		c-4.9-1.6-2.5-7.6-6-10C127.8,260.3,127.9,259.6,128.5,258.9z"/>
	<path class="st5" d="M302.3,163.1c-1-4.2,2.8-7.6,2-11.8c5.2-4.4,7.5-10.8,10.7-16.4c7.1-12.5,15.2-24.3,24-35.6c2-2.6,3-7,7.7-7
		c0.7-0.8,3,3,2.5-0.8c-0.1-0.9-1.4-1.7-1.6-2.9c3.2-7.7,8.3-13.9,14.3-19.4c1.9-1.8,4.3-0.9,6.1,0c10.3,5.4,20.3,11.2,27.4,20.9
		c1,1.3,2.4,1.7,3.3,2.8c6.9,9.4,11.1,20.3,15.8,30.9c0.9,2,1.5,4.1,1.2,6.3c0.1,1.3,0,2.7-0.6,3.9c-0.7,1.2-1.7,1.9-3.2,1.8
		c-4.9-2.7-4.5,2.5-6.3,4.4c-3.1,0.5-1.9,4-3.7,5.3c-0.5,0-1-0.1-1.4-0.4c-1.5-2.5-3.4-4.9-2.6-8.2c1.2-3.6,0.5-7.4,0.9-11.1
		c0.6-2.4,2.4-3.9,4.1-5.5c-1.3-1.3-2.9-2-3.5-3.6c-1-2.5-2.8-3.5-5.5-3.3c-1.7,0.1-3.3-0.3-4.9-0.6c-6.4-1.2-8.9-6.5-6-12.4
		c1.3-2.5,3.5-4.5,4.4-7.7c-5,0.4-10-2.3-14.1,3.1c-1.8,2.3-5.3,2.7-7.4-0.3c-2.1-3-0.8-6,2.3-7.4c3.4-1.6,6.5-4.2,10.2-4.1
		c-1.9-2.9-6.7-0.7-8.7-3.4c0,5.7-2.8,9.6-9,12c-4.9,1.8-5.3,6.8-7,10.7c-2.1,4.8-3.4,5.5-7.9,2.6c2.1,4.8,1.5,6.2-3.7,7
		c-6.4,0.9-10.2,4.3-11.8,10.5c-0.4,1.8-1,3.6-2.3,5c-2.7,3.1-4.5,6.1-2,10.5c1.3,2.3,0.2,5.2-1.9,7.2c-1.8,1.7-3.6,3.9-1.2,5.9
		c2.6,2.3,5.5,6.4,9.3,4.2c4.8-2.7,9.7-3,14.8-3.2c1.5-0.1,2.7-0.2,2.7-2c0.1-3.8,2.6-5.1,6.5-5.4c-2.4-1.3-6-1.4-4.9-5
		c1.1-3.8,4.9-4.9,7.7-3.7c5.4,2.3,10.1,1,15.5,0.5c5.6-0.5,11.6,0.9,17.6,0.7c3.8-0.1,7.1,2.5,6.8,7.3c-0.8,0.6-1.7,0.7-2.7,0.6
		c-1.9-0.8-3.7-1.2-5.4,0.4c-0.8,0.8-1.9,1.7-3,1.4c-4.4-1.5-6.1,1.6-8.2,4.3c-8.8,3.8-17.8,6.9-26.7,10.4
		c-7.2,2.8-14.8,4.3-22.2,6.6c-2.9,0.9-5.8,1-8.8,0.5c-1.5,0.1-3-0.3-4.2-1.3c-3.4-2.6-7.3-3.7-11.6-3.6
		C304.8,164.8,303.4,164.2,302.3,163.1z"/>
	<path class="st6" d="M255.3,342.8c-4.3,0-8.7-0.4-12.9,0.1c-4,0.4-7.1-3.1-11-2c-3.9,2.7-8.1,1.9-11.8,0c-8.3-4.3-17.7-6.7-24.9-13
		c-1.8-1.3-3.2-3.1-5-4.5c-7.7-8.3-7.7-8.7-0.6-18.2c5.7-7.7,10.7-15.9,16.4-23.6c4.7-6.2,9.8-12.1,14-18.6c1.6-2.5,3.7-4.7,4.6-7.6
		c1.4-4.5,6.4-5.4,8.5-9.5c1.4-2.8,3.9-5.3,5.8-7.9c3.1-2.6,5.9-5.5,8-8.9c0.8-1.2,1.6-2,3-2.1c4.1-1.7,5.3,0.2,5,4
		c1.3,16.5,2.1,33,1.8,49.6c-0.1,3.5,2.7,6.1,2.1,9.6c-2,11.9-1.9,23.9-2.7,35.8C255.2,331.5,255.4,337.2,255.3,342.8z"/>
	<path class="st6" d="M193.4,275.9c-1.7-1.8-0.8-3.1,1-3.8c8-3,10.2-10.7,13.9-17.1c0.5-0.8,0.4-2,1.4-2.5c4.4-2.4,5-5.3,1.7-9.1
		c-1.3-1.5-0.9-2.9,1.5-2.6c2.7,0.3,4.5-1,6-2.9c1.3-1.7,2.9-2.6,4.6-0.9c1.9,1.8,0.2,3.3-1,4.6c-1.5,1.6-2.9,3.2-4.6,4.5
		c-2.2,1.7-1.6,3.8-1.3,5.9c0.1,0.7,0.2,1.4,1,1.5c0.8,0.1,1.4-0.4,1.5-1c0.7-6.2,6.5-9.7,7.9-15.6c0.4-1.5,0.9-3,0-4.3
		c-1.7-2.8-2.3-5.2,0.6-7.9c1.7-1.6,0.2-3.1-1.7-3.4c-5.5-1.1-11.1-4.5-16.5,0.2c-0.5,0.5-1.3,0.4-1.8-0.1c-0.8-0.9-0.2-1.5,0.5-2
		c1.2-0.8,2.8-1.4,1.8-3.9c-7.6,5.5-15.5,9.9-25.3,7.7c2.9-5.1,8.6-4.5,13-5.7c4.8-1.3,9.1-3,13.1-5.9c2.6-1.9,5.3,0.4,7.9-0.4
		c1.4,1.1,2.1,2.9,3.9,3.8c0.2-1.8-1.6-2.5-2-3.9c1.2-3.1,3.9-3.6,6.5-3.1c3.5,0.7,6.8,2.2,10.2,3.4c0.3,0.1,0.6,0.3,0.8,0.6
		c1.4,1.8,0.5,13.8-1.3,15.6c-2.8,2.6-4.8,5.4-4.1,9.5c-3.1,9.1-9.2,16.4-14.8,23.9c-9.7,13.1-19.8,25.8-28.2,39.8
		c-2,3.4-4.8,6.3-9.2,6.6c-1.2-0.5-2.2-1.4-3.2-2.2c-1.4-1.1-3.3-2.1-3-4.2c0.4-2.7,3.2-0.7,4.5-2c0.3-0.3,0.7-0.7,1-1
		c1-2.5,1.9-5,0.7-7.9c-0.6-1.5-0.7-3.5,0.3-5.1c1.8-1.6,3-0.8,3.8,1c0.4,0.9,0.3,2.1,0.9,2.8c1.3,1.5,1.9,5.1,4.3,3.6
		c2.4-1.6-0.7-3.2-1.7-4.6c-0.7-1-1.5-1.9-0.9-3.1c0.6-1.5,1.9-1.9,3.3-1.3c1.7,0.7,2.3-0.7,3.3-1.4
		C195.2,279.9,195.9,277.9,193.4,275.9z"/>
	<path class="st2" d="M194.5,326.8c4.4-0.4,6.1,4.1,9.7,5.3c9.1,3,16.8,10,27.2,8.9c0.1,2,2.5,2.2,3,3.9c-0.9,4.3-5.4,4-8,6
		c-2.9,1.3-4.4-0.1-5.3-2.8c-0.3-0.8,3.3-1.7-0.1-2.5c-0.8-0.2-1.9-0.5-2.4-0.1c-4.6,4-9.9,2.4-15.1,2c-3.3-0.2-5.4,2.2-8.1,3.3
		c-1.9-2-5.1-1.8-7-4c-2.1-2.9,0.6-4,2.1-5.6c1.7-1.8,4.1-2.7,6.1-3.5c0.2-1.1-0.3-1.6-0.8-1.9c-2.1-1.2-3.8-3.9-6.1-3.8
		c-2.5,0.1-2.2,3.6-3.9,5.2c-1.4,1.3-2.2,3.4-4.4,3.6c-3.7,2.3-9.9,0.4-11.5-3.3c-1-2.4,0.9-3.1,2.4-4.2c-0.3-0.2-0.6-0.4-0.8-0.4
		c-2.6-0.3-5.5,0.8-7.8-0.8c-2.7-1.8,0.2-4.7-0.9-7c-1.2-2.4,1.3-6.4-3.3-7.3c-0.6-0.7-0.5-1.3,0-2c1.9-0.2,3.5-1.1,4.8-2.4
		c1.7-1.6,3.4-3.7,5.9-1.9c2.3,1.6,0.6,3.7-1,6.6c4.7-2.5,8.4-2.5,12.2-2.3c1.3,3,3.3,5.1,6.5,5.9c0.4,0.2,0.8,0.4,1.1,0.7
		C190.5,324.3,192.4,325.7,194.5,326.8z"/>
	<path class="st7" d="M347.2,93.2c-1.2,0-2.1,0.2-2.9,1.3c-6.8,9.6-14,19-20.5,28.8c-5,7.5-10.1,15.1-13.8,23.4
		c-1,2.2-3.1,3.8-5.6,4.5c3.4-4.9,3.7-11.6,9.2-15.3c0.8-0.6,1.4-2.6,1.1-3.6c-0.7-2-2.8-0.9-4.3-1.2c0.8-4.4,4.9-6.5,7.2-10
		c6.3-9.5,13.1-18.7,19.8-27.9c5.7-7.9,11.6-15.7,17.4-23.5c2.4-3.2,2.5-6.3-0.3-9.4c-5.8-6.5-12.8-11.2-20.4-15.4
		c-7.3-4-15.2-6.3-23.2-7.9c-1-0.2-1.3-1-1.5-1.8c5.9-3.3,16.2-1.3,21,4c0.3,0.4,0.5,1,0.9,1.2c7.6,3.3,13.8,9,21.1,12.8
		c5.9,1,7.5,5.2,7.7,11.1c4.3-3.9,5.8,1.1,8.7,2.2c11,3.3,18.6,11.4,26.8,18.7c2.3,2,4.8,4.3,2.7,8c-1.4-0.2-3,0.3-3.8-1.6
		c-3.2-6.9-9.7-10.4-15.7-14.2c-2.5-1.6-4.4-3.8-7.5-5c-8.3-3.2-8.6-3.6-13.7,3.5c-3.1,4.4-6.1,8.8-9.1,13.2
		C349,90.8,349.9,92.5,347.2,93.2z"/>
	<path class="st8" d="M232.3,146.1c4.8,7.4,6.9,15.5,6,24.3c-0.2,1.9-1.2,2.6-2.9,2.6c-3.8-0.1-7.4-0.7-11.1-1.3
		c-5.5-0.9-10.4-3-15.5-4.5c-1.2-0.4-2.2-0.7-2.5-2c-0.3-0.5,1.8-1.9-0.4-1.6c-1.2,0.1-2.5,0.6-3.5,1.5c-3.3,0.7-5.6-3-9-2
		c-4.7,0.6-8.9-1.6-12.6-3.5c-4.9-2.5-10-3.2-15-4.8c-1.8-0.6-4.2-0.5-3.8-3.5c1.4-2,3.8-1.6,6.5-2.6c-3.4,0.1-5.8-0.8-8-2.3
		c-2-1.4-4-2.9-2.6-5.6c1.3-2.5,3.5-1.8,5.6-1c0.9,0.4,1.7,0.8,2.5,1.2c2,0.8,4,1.5,6.2,1.8c2.7,0.3,5,1.4,6.7,3.7
		c2.3,3,6.2,3.7,8.9,6.1c1.4,1.2,1.8-0.5,2.5-1.3c2.5-3.2,3.7-3,5.4,0.7c0.6,1.4,1.3,2.7,2.4,3.6c1.7,1.8,3.5,3.3,6.1,1.6
		c3.3-2.1,6.5-1.3,9.3,0.8c4.9,3.6,10,4.6,15.7,2.4c-4.8,1.1-9.8,3.1-13.5-2.1c0.4-3.1,2.8-4.2,5.3-4.2c3.3,0,5.2-1.5,6.4-4.3
		c0.6-2.2-1.3-2.8-2.4-3.9c-2.2-2.5-3.5-5.2-1.9-8.5c4.2,0.9,4.7,5.7,7.9,7.6C231.6,144.9,231.9,145.6,232.3,146.1z"/>
	<path class="st1" d="M162.4,151.1c3.3,3.1,8,2.3,11.8,4c0.8,0.3,2.4-0.4,2.8,0.1c4.2,5.3,11.8,3.4,16.4,7.9c-0.7,3.1-3.2,1.7-5.1,2
		c-3.5,2.7-7.4,2.3-10.7,0.1c-3.9-2.5-8.1-3.4-12.4-4.6c-8.5-2.5-17.1-4.8-24.8-9.4c-2.4-0.2-4.7-0.4-7.1-1.7
		c-8.7-4.6-12.7-2.4-14.9,7.4c-0.6,2.8-0.1,6.2-4,7.2c-0.8-3.1-2.1-5-5.5-2.5c-1.3,0.9-2.9,2-4.5,0.5c-1.1-1-1.1-2.3-0.6-3.7
		c0.7-2.2,2.3-2.4,4.3-2.5c2-0.1,3.4,1,5.7,1.8c-0.7-3.5,0.4-5.7,3.6-7c0.7-0.3,1.5-1.5,1.5-2.4c0.1-1.7-1.6-1.2-2.6-1.5
		c-1.4-0.3-3.4-0.4-3.2-2.4c0.2-1.6,2-1.8,3.2-1.5c2.4,0.5,4.1-2,7-1.1c1.5,0.5,1.6-4-0.1-5.1c-3.7-2.4-3.1-5.3-1.6-8.2
		c1.7-3.2-1.9-7,1.5-9.9c1.9,0.7,0.1,7.7,5.1,3.2c2.1,1.8,1.8,4.2,1,6.4c-3.8,10.4,0.6,12.6,8.8,14.5c7.9,1.9,15,5.9,23.1,7.1
		C161.8,150.2,162.1,150.7,162.4,151.1z"/>
	<path class="st9" d="M140.5,151.2c4.5,1.6,9.4,1.5,13.8,4c3.4,2,7.6,2.8,11.5,3.8c4.6,1.1,9.1,2,13,5c2.8,2.2,6.4,0.7,9.6,1.1
		c0.3,1.9,2.1,3.4,3.3,3.3c4.2-0.2,7.5,2.5,11.9,2.6c4.2,0,8.3,3,12.5,4.8c7.4,3.2,11.9,9.8,17.2,15.4c3.6,3.8,0.9,9.3-4.2,9.8
		c-3.4,0.3-6.6,0.2-9.1,3.8c-1.3,1.8-4.9-0.2-7.5,0.2c0.4-4.8,4.5-4.7,7.7-5.7c1.8-0.6,4.8,0,4.6-2.6c-0.2-2.3-3.3-1.5-5.1-2.3
		c-1.2-0.6-2.6,0.1-3.9,0.4c-1.3,0.3-2.8,1.9-4,0.1c-0.4-0.5-0.2-1.7,0.2-2.3c1-1.9,2.6-0.6,4-0.6c2.7,0.1,5.3,0.1,8,0.1
		c1.6,0,3.1-0.5,3.2-2.4c0.1-1.6-1.1-2.5-2.6-2.4c-2.8,0.2-4.8-2.7-8.1-1.6c-1.7,0.6-2.8-1.5-3.1-3.2c-0.3-2.2-1.6-3.6-3.4-3.8
		c-6.5-0.6-11.2-5.4-17.3-6.9c-4.5-1.1-8.7-3-13.5-1.8c-2.4,0.6-4.9-0.5-5.6-3.1c-0.9-3.3-3.1-3.5-6-3.8c-4.8-0.5-10.1,0.3-13.3-4.9
		c-0.9-1.5-2.4-0.4-3.6-0.2C147.1,158.3,141.4,154.4,140.5,151.2z"/>
	<path class="st10" d="M180.4,306.9c5.4-3,8.5-8.1,11.5-13.1c5.2-8.6,11.3-16.4,17.2-24.4c4.5-6.2,8.8-12.5,13.5-18.4
		c3.6-4.5,4.6-10.7,9.6-14c0.2,1.4-0.4,3,0.9,4.6c1.4-1.6,2.2-4.3,5.1-3.6c0.2,2.4-0.6,4.1-2.4,6.1c-6.8,7.7-13.4,15.6-18.3,24.6
		c-3.4,6.3-9.8,10.2-13,16.7c-2.4,4.8-6.5,8.5-8.8,13.6c-1.1,2.5-4,4.7-5.8,7.3c-5.8,8-5.8,8-0.1,15.6c0.2,0.2,0.2,0.6,0.3,1
		c-0.7,0.6-1.3,0.5-2,0l0,0c-2.9-1.6-6.9-2.2-6-7c-0.3-1.8,1-4.3-2.1-5C179.3,309.5,179.2,308.2,180.4,306.9z"/>
	<path class="st11" d="M290.3,35.4c-2.5,2.6-5.8,3.6-9.1,4.8c-1.8,0.6-2.3,1.4-2.4,3.5c-1.2,28.5-0.1,57-0.5,85.5
		c-0.1,5.2,1.4,10.1,2.1,15.2c0.5,3.4,3.2,4.5,6.1,4.8c3,0.3,6.3,0.7,7.3-3.2c0.9-3.5,4.7-2.6,6.5-4.6c1.6,2,1.2,4-0.2,5.9
		c-6,4.2-12.8,4.7-19.8,4c-3.2-2.6-4-6.7-6-10c0-0.3,0-0.7,0-1c-1.4-3.9-2-8.1-1.9-12.1c0.9-28,0.2-56,0.3-84c0-4.4,1.3-7.4,5.4-8.9
		c2.4-0.4,4.9-0.5,7.3-1C287.2,33.7,289,33.7,290.3,35.4z"/>
	<path class="st1" d="M114.5,166.1c1.2,7.2-2.1,13.8-2.4,20.8c-0.3,6.6,0,12.9,2,19.2c0.9,2.7,0.3,5.9,0.4,8.8c-0.7,0.3-1.4,0.7-2,1
		c-0.7-2.6-3.4-3.5-4.9-5.4c-1.8-2.1-3.2-3.9-0.2-6.2c1.7-1.3,1.4-3-0.4-4.1c-3.3-1.9-5.3-4.8-7.3-8.1c0.8,4.6,1.6,9.2,2.3,13.7
		c0.2,1.3,0.5,2.6,0.5,3.9c0,1.9,0.5,4.5-2.2,4.8c-2.9,0.3-2.4-2.4-2.8-4.3c-2-9.2-0.1-18.3-0.4-27.5c-0.2-4.1-0.4-8.2-0.5-12.4
		c0-1.6-0.3-3.9,2-3.8c2.3,0,1.9,2.3,2,3.9c0.2,3-0.2,5.8-1.4,8.7c-1.7,4.1,0.1,6.2,4.4,5.7c1.7-0.2,2.1,0.3,2.1,1.7
		c0,0.8,0,1.7,0,2.5c0.1,2.1-0.2,5.2,2.4,5.2c3.3,0,2.4-3.2,2.6-5.5c0.1-1.8-0.9-3.1-1.9-4.4c-3.2-4.1-3.8-8.9-2.9-13.7
		C106.6,166.2,110.9,166.4,114.5,166.1z"/>
	<path class="st12" d="M278.3,35.3c-4.6,3.4-4.1,8.3-4.1,13.2c0.1,30.5,0.1,61.1,0.1,91.6c-1.8-0.9-2.1-2.4-2-4.2
		c0.1-2.7-1.3-3.9-4-3.8c-1.5-1.2-1.5-2.9-1.5-4.6c0-29.5-0.1-59,0-88.6c0-0.8,0.1-1.7,0.4-2.4C270.6,32.9,274.5,34.5,278.3,35.3z"
		/>
	<path class="st5" d="M134.5,270.9c3.6-1.7,5.3-4.3,5.2-8.6c-0.2-3.8,4.2-5.7,5.5-9.2c0.5-1.2,1.6-0.2,2.2,0.6
		c1.7,2.6,0.9,5-0.7,7.4c-1.7,2.6-3.5,4.9-0.6,8.4c1.8,2.3-2.1,3.7-3,5.8c-0.5,1-3.2,1.3-2.3,3.1c1.2,2.3,1.8-0.9,2.8-0.7
		c2.9,0.4,3.1,2.5,2.5,4.8c-0.3,1.1-1.1,2.3,0.5,3c1.3,0.5,1.5-0.8,2.2-1.5c1.6-1.6,3.4-1.6,4.6,0.2c2.6,3.9,5.9,6.8,9.8,9.4
		c2.2,1.5,1.8,3.8-0.8,5c-1.4,0.6-3.5-0.2-3.9,2.2c-4.1,0.6-5.6-3-8-5.1c-6.9-6.1-10.5-14.6-15.7-22
		C134.3,273.1,134.6,271.9,134.5,270.9z"/>
	<path class="st13" d="M264.3,150.1c-2.4,6.2-7.5,7.7-12.5,3.9c-1.7-1.3-3.7-2-5.6-2.9c-2.8-2.9-5.4-5.9-7.9-9c-0.7-1-1.4-2-2-3
		c-3.8-3.1-6.3-7.5-9.8-11c-1.1-1.1-1.4-2.6-0.6-4.1c2.8-2.2,5.4-1.3,7.5,1c2.8,3,4.5,7.2,9,8.7c1.2,0.4,1.2,2.2,1.3,3.6
		c0.4,2.9,2.2,5.1,3.6,7.5c1.8,2.9,3.4,2.9,4.2-0.8c1-2.1,3.1-2.6,5-2.4c3.6,0.5,4.6-1.2,4.8-4.4c0.2-2.3,0.8-4.6,2.3-6.4
		c0.8-1,1.6-2.9,3.4-1.1c0.8,3.6,0.2,7.3,0.3,10.9C266.7,143.9,265.6,147,264.3,150.1z"/>
	<path class="st14" d="M232.3,146.1c-5.1-0.9-6.7-5.3-9-9c-3.8-1.2-5-4.9-7-7.8c-1.1-1.4-1.8-3.1-3.1-4.3c-5.6,1-5.6,1-4.4-4.6
		c0.3-1.2-0.5-1.8-1.1-2.5c-3.2-2.6-3.4-7-6.1-10c-2.3-2.5-4.7-5-6.2-8.2c-2-3.2-4.7-6-6.2-9.6c-1-1.7-1.8-3.4-2.8-5.1
		c-0.7-0.8-1.5-1.5-2.5-2c-5.5-2.8-6.4-5.3-3.4-9.9c6,4.7,10.6,10.7,14,17.3c1.9,3.6,4.1,7,6.6,9.7c6.3,6.9,11.1,15.1,17.4,22
		c5.8,5.5,9.2,12.7,13.9,19C232.3,142.8,232.3,144.5,232.3,146.1z"/>
	<path class="st2" d="M105.5,251.9c1.3-2,2.7-4,4-6c1.3,1.1,2.5,2.2,3.8,3.2c2.5,1.9,4.6,1.6,6-1.3c0.4-0.9-0.1-2.8,1.9-2.1
		c1.3,0.4,1.5,1.9,1.2,3c-0.9,3.1-1.4,6.6-3.2,9.2c-2,2.8-1.8,5.9-2.6,8.8c-0.3,1.1,0.3,2.5,1.6,2.7c1.8,0.2,1.9-1.3,2.3-2.6
		c0.5-2-1.4-5.8,1.7-5.7c2.7,0.1,2.7,4.3,2.8,6.7c0.3,5.2-6.6,10.4-10.2,8.1c-0.6-0.4-0.9-1.3-1.3-2c-0.4-2.5-0.3-5.4-3.9-6
		c-0.7-0.1-0.7-1.3-0.1-2c1.1-3.1,2.7-6,5.4-8c1.7-1.3,1.6-3,0.1-4.2c-1.6-1.4-2.7-0.1-3.5,1.3c-1.3,2-2,5.6-5,4.4
		C103.1,258,105,254.6,105.5,251.9z"/>
	<path class="st2" d="M137.5,285.9c3.1,2.7,1.9,8.1,6.6,9.8c-1.6,1.7-4.1,1.1-4.6,3.2c0.3,2.3-0.7,3.3-3,3c-4.4,1.2-3-4.5-6-5
		c-2.9-2.7-1.6-7.4-5-10.2c0.7,1.9,2.4,3,2.7,4.7c0.2,1.4,1.1,3.5-1.7,3.5c-4.9-4.2-6.7-9.1-4.7-13.2c1.4-2.8,3.2-5,6.7-4.8
		c1,1.8,2.1,2.8,4,1c2.3,0.4,4.2,1.1,4,4c-0.8,2-3.3,3.3-2.6,6.1C135.8,288.3,135.9,285.8,137.5,285.9z"/>
	<path class="st15" d="M266.3,141.1c0-4,0-8,0-12c-2.2-2.8-2-6.2-2-9.5c0-21.9,0-43.9,0-65.8c0-4.3-0.7-8.6-0.1-12.9
		c0.3-2,0.4-4,2-5.5c0.4,0,0.7-0.1,1.1-0.1c0.3-0.3,0.7-0.3,0.9,0.1c0,32.3,0,64.5,0.1,96.8c0,1.7,0,3.3,0,5
		C266.9,138.1,269.1,140.8,266.3,141.1z"/>
	<path class="st1" d="M181.4,340.8c1.3-3.8,6-5.6,5.5-10.6c-0.2-2,1.9-1.2,2.9-0.6c3,1.9,5.9,4.1,8.9,6.2c0.6,0.5,1.4,1.1,1.1,2
		c-0.5,1.5-1.9,1.7-3.2,1.9c-4.2,0.7-6.9,3-8.2,7.1C185.5,345.5,184.1,342.3,181.4,340.8z"/>
	<path class="st2" d="M195.4,350.8c2.2-4.7,5.5-6,12-4.8c3.2,0.6,6.3,1.9,8.9-1.6c1-1.3,3.1-0.6,4.8-0.6c2.5-0.1,5.3,0.6,4.9,3.4
		c-0.4,2.6-3-0.2-4.6,0.5c-0.3,0.3-0.7,0.6-1.1,0.8c-3.6,2.2-7.4,3.7-11.5,4.7c-1.7,1-3.5,1.7-5.4,0.5
		C200.9,352.4,197.6,352.9,195.4,350.8z"/>
	<path class="st16" d="M232.3,141.1c-6.8-4.8-10.2-12-13.9-19c2.2-1,2-3.1,2-5c5.3-0.5,5.8,3.1,6,7c-0.1,1.6,0.8,2.6,1.9,3.7
		c3.4,3.2,6.5,6.7,8,11.3C234.4,138.7,231.7,136.5,232.3,141.1z"/>
	<path class="st5" d="M180.4,306.9c0,1.3-0.1,2.6-0.1,3.9c-8.8,0-15.2-5.3-21.9-9.9c6.8,1.1,13.3-1.7,20-2c-4.1,1.5-4.7,3.2-0.1,5
		C179.6,304.4,180.3,305.5,180.4,306.9z"/>
	<path class="st17" d="M254.4,231c-0.5-2.8-2.3-4-5-4c2.9-2.6,3.1-6,3-9.7c-0.1-10.1,0-20.2,0-30.3c1.5,1.5,2.2,3.3,1.6,5.4
		c-1.3,4.7,0.5,9,1.4,13.5c1.6,7.3,1,14.8,0.3,22.1c-0.1,1-0.3,2-0.5,2.9c0,0-0.5,0-0.5,0L254.4,231z"/>
	<path class="st18" d="M291.3,165.1c-4.7,3.1-10.1,4.8-15.5,4.4c-5.3-0.4-10.6,0-15.8-0.5c-4.7-0.4-5,4.1-7.6,6.1
		c-0.1-6.6,1.2-7.9,7.6-8c4,0,7.9-0.1,11.9,0C278.4,167.3,284.6,163.6,291.3,165.1z"/>
	<path class="st1" d="M203.4,353.8c2.1,0.3,3.4-1.1,5-2c4.4-0.1,8.5-1.3,12-4c0.3,0,0.7,0,1,0c1.5,1.3,2.9,2.7,5,3c0.3,2,0.7,4,1,6
		c-0.3,0.5-0.7,0.5-1,0c-1.3-1.6-2.7,0.2-4,0c-5.4,0.2-10.7-0.3-16-1C205.4,355.1,204.4,354.5,203.4,353.8z"/>
	<path class="st2" d="M206.4,355.8c5.4-1.4,10.8-2.2,16,1c-2.9,4.6-7,3.3-10.9,1.9C209.6,358.1,208,356.8,206.4,355.8z"/>
	<path class="st1" d="M159.4,315.9c0,0.7,0,1.3,0,2c-1,0.7-2,1.3-3,2c-1.2,1.9-3.4,1.1-5,2c-6-0.5,0.2-3.5-1-5c1.4-1.1,0-2.8,1-4
		C154.2,313.7,157.1,314.1,159.4,315.9z"/>
	<path class="st1" d="M126.5,294.9c1.8-2,1-3.7-0.9-4.9c-1.4-0.9-2.1-2.1-2-3.7c0.1-1.1-0.3-2.5,1.2-3c1.7-0.5,2.3,0.8,2.8,2.1
		c1.3,3.8,2.6,7.5,3,11.5C128.8,297,127.3,296.6,126.5,294.9z"/>
	<path class="st2" d="M151.5,321.8c0.7-3,3.2-1.7,5-2c0.5,0.4,1,0.9,1.5,1.3c1.3,1,2.7,2,2.2,3.9c-0.3,1.2-1.4,1.9-2.5,2.1
		c-2.1,0.4-3.3-0.8-4.3-2.5C152.8,323.7,152.1,322.8,151.5,321.8z"/>
	<path class="st2" d="M154.4,303.9c3,0.1,4.7,2.8,7.2,3.9c0.8,0.3,1.6,0.7,1.2,1.7c-0.3,0.8-1.1,1.3-2,1.2c-3-0.3-5.8-0.9-7.4-3.9
		C153,305.6,152.1,304.2,154.4,303.9z"/>
	<path class="st7" d="M300.1,147.1c0.1-2,0.1-3.9,0.2-5.9c2.7-1.1,4.3-3.4,6-5.6c1-1.4,1.9-2.7,3.8-2.6
		C306.9,137.8,305.2,143.6,300.1,147.1z"/>
	<path class="st1" d="M137.5,285.9c-0.3,0.6-0.5,1.2-0.8,1.8c-0.5,1.2,0.2,3.4-1.9,3.4c-0.8,0-1.8-1.2-2.5-2
		c-1.2-1.4-1.1-3.2,0.2-4.4c1.1-1.1,2.7-1.8,4-2.7C136.4,283.3,136.8,284.7,137.5,285.9z"/>
	<path class="st2" d="M151.5,312.9c0.5,1.5,4,3.8-1,4c-1.7-2.3-3.3-4.7-5-7c-1-1.4-0.4-2.4,1-3C148.9,308.2,150.4,310.4,151.5,312.9
		z"/>
	<path class="st2" d="M143.5,303.9c0.7,0.3,1.3,0.7,2,1c-0.1,1.3-0.6,2.5-2,3c-1.6,0.8-3.2,3-5.2,1.4c-2-1.6,0.2-3.6,0.2-5.4
		C140.1,302.2,141.8,302.5,143.5,303.9z"/>
	<path class="st16" d="M238.3,142.1c4.3,1.6,6.5,5,7.9,9C242.2,150.5,238.5,146.2,238.3,142.1z"/>
	<path class="st5" d="M220.3,211c1.3,0.1,3.2-0.2,3.3,1.4c0,2.1,1.2,3.4,2.2,5c-3.4-1.2-8.1-0.7-7.4-6.3
		C219,211,219.6,211,220.3,211z"/>
	<path class="st2" d="M112.5,241c-0.5-2.5,1.8-2.8,3-4c0.5,0.4,1.3,0.8,1.4,1.3c0.4,1.6,2.4,3.3,0.2,4.8
		C114.7,244.7,113.6,242.6,112.5,241z"/>
	<path class="st12" d="M266.3,141.1c0.7-1.3,1.3-2.7,2-4c0,4.7,0.7,9.7-3.9,13C264.2,146.9,264.2,143.8,266.3,141.1z"/>
	<path class="st5" d="M202.4,165c0.1-1.6,1.5-2.1,2.5-2.9c1.3-1,2.7-1.4,4.1-0.5c0.5,0.3,1,1.1,0.9,1.6c-0.4,1.9-2.1,1.7-3.6,1.9
		C205,165.1,203.7,165,202.4,165z"/>
	<path class="st1" d="M132.5,277.9c-0.2,1.7,0.5,4.3-2.5,3.7c-2.5-0.5-2.6-2.6-1.5-4.7C130.1,275.9,131.6,275.9,132.5,277.9z"/>
	<path class="st12" d="M274.3,141.1c2.5,3,5.3,5.9,6,10C274.3,150.2,275.8,144.7,274.3,141.1z"/>
	<path class="st1" d="M143.5,303.9c-1.7,0-3.3,0-5,0c-0.7-0.7-1.3-1.3-2-2c1.3-0.7,2.3-1.7,3-3C141.3,300.1,143.2,301.4,143.5,303.9
		z"/>
	<path class="st1" d="M182.4,315.9c0.7,3.4,3.8,4.8,6,7c-6.1-1.1-7.7-2.7-7-7C181.7,315.9,182.1,315.9,182.4,315.9z"/>
	<path class="st1" d="M109.5,265.9c0.2,0.4,0.3,1.3,0.5,1.3c4.8,0.4,4.4,3.4,3.5,6.7c-1.2-1.8-1.4-4.2-4-5.2
		C108.2,268.2,108.5,266.9,109.5,265.9z"/>
	<path class="st1" d="M128.5,258.9c0,0.6,0,1.3,0,1.9c-0.2,1.7,0.4,3.6-1.2,5.2C126.5,263.6,125.4,261.1,128.5,258.9z"/>
	<path class="st1" d="M154.4,303.9c-1,0.8-1,1.9-1,3c-0.5-0.6-1-1.2-1.5-1.9c-0.8-1-2-2.3-0.4-3.3
		C153.6,300.5,153.6,302.9,154.4,303.9z"/>
	<path class="st1" d="M143.5,307.9c0-1.4,0.7-2.4,2-3c0.3,0.7,0.7,1.3,1,2c-0.3,1-0.7,2-1,3C144.8,309.2,144.1,308.5,143.5,307.9z"
		/>
	<path class="st2" d="M226.3,356.8c0.3,0,0.7,0,1,0c0.9,2,1.8,4,0,6C226.2,360.9,226.3,358.8,226.3,356.8z"/>
	<path class="st5" d="M354.2,215c-3.9-5-7.8-9.9-11.7-14.9c-4.6-6.1-9-12.3-13.8-18.2c-1.7-2.1-2.6-4.1-2.5-6.7
		c3-3.1,7.2-4.1,11.1-5.3c10.9-3.3,22-6.4,32.4-11.3c3.3-1.5,6.7-1.6,10.2-0.4c1.8,1.3,3.7,2.1,5.8,2.7c3,0.7,4.5,2.7,3.9,5.9
		c-0.6,3-2.6,4.3-5.4,3.9c-3.4-0.5-6.2,0.2-8.5,2.9c-0.2,0.2-0.5,0.6-0.8,0.6c-6.9-1-12.7,4.9-19.5,3.1c-3.6-1-6.1-0.3-8,2.8
		c-1.1,1.8-3,3.1-4.4,4.8c6.5,0.8,11.7,7.2,10.6,14c-0.7,4.3,0.3,6,4.9,6.1c3.2,0.1,6.8,0.1,7.9,2.9c-0.4-0.9-2.3-3,0.1-5
		c2.2-1.8,3.9-0.1,5.6,1.3c2.1,1.8,4.1,0.5,5.9-0.7c2.7-1.7,5.5-2.5,8.5-1c1.4,0.7,2.4,1.8,2.4,3.5c0,1.5-0.9,2.9-2.2,3
		c-4.3,0.2-6.6,4.4-11,4.8c2.6,1.9,3.6,0.3,4.9-1.3c3.4-4.1,7.6-3.6,9.6,1.4c1.1,2.8,2.6,2.9,5,2.5c2.8-0.5,3.4-2.3,3-4.7
		c-0.2-1.6-0.5-3.3-0.4-5c0.3-3.5,0.9-6.7,5.3-7.2c1.3-0.1,2.3-0.8,2.1-2.2c-0.2-1.6-1.5-0.7-2.4-0.8c-4.1-0.2-6.3-3.5-3.9-7.2
		c2.9-4.4,2.5-9.1,2.7-13.9c0.3-6.3,1.5-12.4,5.8-17.7c-3.3-1.8-7.5-1.3-9.7-4.8c-0.1-0.7-0.2-1.6,0.4-1.8
		c5.8-2.1,11.3-5.6,17.8-5.3c3.9,0.2,5.7,3.6,7.9,6.3c1.1,1.4,1.7,3.2,2.8,4.7c0.3,0.8,0.1,1.6-0.4,2.3c0,2.7,0,5.3,0,8
		c-1,1.1-2.4,1.1-3.7,1c-4.7-0.7-6.3,1.9-6.3,6c-0.4,18.6,0.5,37.1,1.8,55.6c0.1,2-0.6,3.1-1.8,4.3c-2.5,1.3-3.9,0.4-4.5-2.2
		c1.1-1.9,4.6-4-1.1-5.5c1.2,2,3.6,3.5,0.9,5.4c-5.4,2.3-9.8,1.1-13.4-3.5c-0.4-0.8,0.1-1.4,0.4-2.1c-0.9,0.6-1.2,1.6-2.1,2
		c-2.1,0.8-4.4,0.8-6.3-0.3c-4.2-2.3-8.8-3-13.4-3.5c-4.6-2-9-4.1-13.8-5.6c-1.5,0.2-3-0.1-4.4-0.7C357.1,216.7,355.5,216,354.2,215
		z"/>
	<path class="st19" d="M412,231c0.4,2.3,2.2,2.6,4.1,2.9c3.9,5.8,4.1,12.4,4,19c2.7,4.3,0.9,8.6,0,13c0,0.3,0,0.7,0,1
		c0.9,4.3,2.8,8.6,0.1,13c-0.1,3.7-0.1,7.3-0.2,11c-3.8,4.2-4.9,4.2-8.9,0.1c-1-1-2.4-1.7-3-3.1c-0.9-1.6-2-2.8-4-3
		c-0.5-0.6-0.6-1.3-0.1-2c0-1-0.1-2-0.1-3c-1.4-1.9-0.7-3.8,0.2-5.6c3.6-6.8,5.1-14.3,7.7-21.5c0.8-2.3,0.5-4.9,0.4-7.4
		c0-3.5-2-5.7-5.2-6.4c-8.4-1.8-16-6.5-24.7-7.1c-5.6-4.6-12.9-4.5-19.2-7.1c-1.3-0.6-2.9-0.6-4-1.8c-0.8-0.5-1-1.2-1-2.1
		c-1-1.4-1.3-2.7,0-4c1.7,0,3.3,0.1,5,0.1c3.6,3.7,8.7,3.9,13,5.9c5-0.4,9.8,0.2,14.1,3.2c2.1,1.4,4.5,0.7,6.8,0.9
		c0.3-0.4,0.6-0.4,0.9,0C402,230.7,406.8,231.6,412,231L412,231z"/>
	<path class="st17" d="M359.2,313.9c1.8,0.5,3.1,2.2,5.5,1.1c4.2-1.9,6.1-0.3,6.5,4.6c0.4,4.1-0.9,8.3,1,12.2
		c-2.1,0.4-2,1.7-1.4,3.2c0.8,2.2-0.2,3.4-2.4,3.7c-4.9-5.2-7.5-12.4-14.1-16c-0.6-0.6-0.6-1.3-0.3-2
		C356.6,319.3,357.4,316.2,359.2,313.9z"/>
	<path class="st20" d="M408.1,287.9c1.1,0.4,2.7,0.6,3.1,1.4c2.3,4.7,5.5,3.5,8.8,1.6c0.3,2.5-0.2,4.7-2.7,5.7
		c-2.4,0.9-3.6-1.1-4.9-2.5C410.7,292.3,407.9,291,408.1,287.9z"/>
	<path class="st17" d="M420.2,279.9c0-4.3,0-8.6-0.1-13c2.4,2.6,2.5,5.9,2.9,9.1C423.2,278.1,422.5,279.6,420.2,279.9z"/>
	<path class="st17" d="M420.1,265.9c0-4.3,0-8.6,0-13C423.8,255.7,423.8,260,420.1,265.9z"/>
	<path class="st17" d="M404,282.9c0,0.7,0.1,1.3,0.1,2c-0.9,2.6-3.7,3.7-5,6c0-1.1,0-2.2-1-3C399.1,285.1,400,282.1,404,282.9z"/>
	<path class="st17" d="M428,234.9c0,1.6-0.8,3-2.3,3.4c-1.8,0.5-1.6-1.2-1.5-2.2c0.1-1.5,0.3-3.2,2-3.5
		C427.6,232.3,427.8,233.7,428,234.9z"/>
	<path class="st17" d="M374.1,335.8c3.2,1.7,4.4,4.7,5,8C376.3,341.8,373.6,339.8,374.1,335.8z"/>
	<path class="st17" d="M464,172.1c-2.6,1.3-3.9,5.8-8,3c1.7,0.1,2.9-0.5,3.5-2.1C460.6,170.6,462.2,171.1,464,172.1z"/>
	<path class="st17" d="M428.2,260.6c1,2.9,1.1,4.6,0.1,7C426.7,265.1,426.8,263.4,428.2,260.6z"/>
	<path class="st17" d="M431,301.9c-2.7,3.2-5.8,2.4-9,1C425.1,303,428.1,302.9,431,301.9z"/>
	<path class="st5" d="M226.3,124.1c-2.5-1.9-2.1-6.3-6-7c-2.8-6.4-7.2-11.6-11.8-16.9c-4.4-5.1-8.2-10.7-11.9-16.3
		c-2.9-4.4-5.8-8.8-9.3-12.7c-4.3-4.7-4.2-7.5,0.2-12.3c2.3-2.5,5.5-4.3,6.9-7.7l0,0c6-1.2,9.7-6.7,15.3-8.2
		c8.3-2.3,15.4-8.3,24.7-7.8c7.9,0.4,15.9,0.1,23.8,0.1c0.7,1.8,1.3,0.8,2,0c2,0,4,0,5.9,0c0,31.3,0,62.5,0,93.8
		c-2.7,2.9-3.9,6.6-3.5,10.3c0.3,3.4-1.3,3.3-3.6,3.7c-2.3,0.4-5.4-1.7-6.8,1.9c-1.4,0.9-2.2,0.3-2.6-1.1c-0.4-1.4,0.1-3.1,1.3-3.5
		c6.6-2.2,4.4-6.5,3-10.9c-0.7-2.1-0.5-4.3-0.5-6.4c0-22.3,0-44.6,0-66.8c0-2.5-0.1-5,0.9-7.4c0.7-1.6,1.6-3.2,3.6-2.9
		c2.1,0.3,2.3,2.1,2.3,3.9c0,6.6,0,13.3,0,19.9c0,15.9,0,31.9,0,47.8c0-22.1,0-44.2,0-66.3c0-6,0-5.7-6.1-5.6
		c-6.4,0.1-12.6,1.1-18.7,2.8c-3.7,1-7.1,1.3-10.1-2.1c-1.8-2.1-4.5-1.7-6.4-0.2c-3.4,2.6-6.7,5.5-7,10.3c-0.2,3.3-2.2,5.5-4.6,7.4
		c-3.2,2.5-6.1,1.5-8.2-2.7c1.1,5-5.9,9.5-0.2,14.7c0.9-1.6,2.3-3.3,4.8-2.4c1.9,0.7,2.3,2.5,2.9,4.3c1.6,4.6,3.4,9.3,8.1,11.8
		c1.2,0.6,2.3,1.5,3.1,2.5c1.4,1.9,3,2.3,5.2,1.1c1.8-1,3.8-1.8,5.5,0c1.8,1.8,2.4,4.4,1,6.4c-1.9,3-1.4,5.5,0.2,8.3
		c0.9,1.6,1.1,3.5,0.9,5.4c-0.6,4.2,0.5,7.2,4.1,9.9c2.1,1.6,3.2,2.5,5.3,0.3c1.4-1.5,3.2-1.7,4.8-0.1c3,2.9,1.1,12.6-2.7,14.6
		c-0.5-1.7,1.4-5.4-3.3-3.8c-1.7,0.6-2.1-1.2-2.8-2.6C234.2,127.7,232.3,123.2,226.3,124.1z"/>
	<path class="st5" d="M187.4,84.2c1,1.7,2,3.3,3,5c-0.8,1.3-0.7,2.9-1.5,4.2c-0.6,1-1.6,2.7-2.4,2.2c-3.8-2.7-5.9,2.3-9.2,1.7
		c-3.3-0.6-6.7-0.7-9.9-0.3c-6.3,0.7-11.9,0.8-12.7-7.9c0.4,2.1,2.1,3.4,1.5,5.5c-0.7,2.2-2.7,2.8-4.5,3.6c-1.6,0.6-2.8,1.7-4.1,2.8
		c-1.8,1.5-2.9,2.9,0,4.5c1.8,1,2.3,2.7,1.1,4.2c-2.1,2.5-1.5,4.3,0.4,6.5c1.4,1.7,1.9,3.9,1.5,6.1c-0.3,2-0.8,4.1-3.1,4.6
		c-2.4,0.5-3.6-1.1-4.5-3.5c-0.1,4.4-2.2,6.2-6.3,6.1c-2,0-4.6,0.2-4.9,2.4c-0.2,2.3,2.2,3.5,4.3,4.2c2.4,0.8,4.9,1.2,7.4,1
		c2.8-0.2,5.3,0.4,7.3,2.4c2.2,2.1,4.1,2.5,6.1-0.5c1.1-1.7,2.9-2.3,4.8-1.6c1.6,0.6,3,1.7,1.7,3.8c-1.6-0.5-3.5-2.1-4.7,0.3
		c-1,2.3,1.7,2.3,2.6,3.4c3.1,3.8,7.8,1.3,11.9,3c-3.6,2.8-7.1,3.5-10.9,3.3c-4.6,0-8.9,0.3-13-3.1c-2.4-2-6.4-2.6-9.7-2.7
		c-3.2-0.2-5.6-1.6-8.2-2.9c-4.7-2.4-6.8-7.3-4.5-12.2c1.3-2.7,1.5-5.3,1.5-8.1c0-1,0-1.9,0.1-2.9c3.7-2.5,3.7-7,5.7-10.5
		c5.9-10.1,12.1-20.1,21.4-27.3c5.3-4.1,11.2-7.3,17-10.8c4.6-2.7,7-1.8,7.8,2.5c-1.3,4.6,0.2,7.7,5,9c-1.2,2.1-4.2,0.6-5.9,3
		C182.5,85.5,184.9,84.1,187.4,84.2z"/>
	<path class="st2" d="M290.3,12.3c0.5,0,1.1-0.1,1.5,0c8.9,3.7,18.7,3.1,27.9,4.9c2.3,0.4,3.4,2.5,5.5,3c-0.2,1.4-1.2,2.4-2.4,1.8
		c-4-1.8-7.8,0.4-11.8,0.3c-2.7-0.1-5.2,0.7-6.7,3.5c-1.1,2.2-3.4,2.5-5.6,2.4c-5.7-0.2-11.3-0.2-16.5,2.4c-2.1,1.1-4.6,0.8-6.9,0.3
		c-2.3-0.6-4.5-1-6.8,0c-0.3,0.1-0.8,0.3-1,0.1c-6.6-5-13.1,2-19.7,0.2c-1.4-0.4-3-0.2-4.4-0.6c-2.8-0.8-4.8-2.1-2.7-5.7
		c1-1.6,1.1-3.8,1.5-5.7c0.4-1.8,0.7-3.6,3-4.1c3.1-0.7,6.4-0.8,9-3c0.3-0.2,0.5-0.6,0.8-0.6C266.8,13.6,278.6,9.2,290.3,12.3z"/>
	<path class="st2" d="M194.4,51.3c-5.3-0.5-7.2,3.9-10,7c-0.7,0.8-0.7,2.5-2.2,2.4c-1.5-0.1-1.6-1.4-1.7-2.6c-0.1-1,0-2.2-1.2-2.5
		c-1.5-0.4-1.7,1.3-2.5,1.9c-3.6,2.5-4.4,4.9,1,7.3c-4.7,2.5-9.8,2.5-12.7,6.6c-5.8-1.2-10.2-0.8-9.3,7.1c0.1,0.9-2.7,1-4,0.1
		c-2-1.3-3.6-0.6-3.8,1.3c-0.4,3.1-1.6,5.1-4.6,6.2c-1.7,0.7-1.9,2.6-1.8,4.3c0,2.2-1.3,3-3.3,2.5c-2.3-0.6-1.5-2.2-0.8-3.5
		c1.6-3.1,2.8-6.4,5.2-9.1c1.1-1.2,1.5-2.8-0.2-3.8c-1.4-0.8-2.4,0.1-3,1.5c-1,2.1-2.8,4.2-5,2.4c-2-1.6-0.9-3.9,1.1-5.4
		c0.7-0.6,1.3-1.5,1.7-2.4c1-2,1.9-4.1,4.5-4.2c3-0.2,2.4,2.5,3.2,4.2c0.6,1.2,1.5,2.3,3,2.3c1.2,0,2-1,1.9-1.9
		c-0.4-2.3,0.6-5.1-2.2-6.6c-3.4-1.9-3.6-4.4-0.3-6.8c2.2-1.6,4.4-1.9,4.7,1.8c0.1,1.4,0.4,2.5,1.7,2.6c3.6,0.4,7.1,1.1,10.4,3
		c1,0.6,2.3,0,3-1.1c0.8-1.3,0.2-2.2-1-2.9c-3.3-1.8-5.3-6.2-10.2-4.9c-1,0.3-2-0.4-2-1.6c0-1.4,0.7-2.6,2-3.3
		c3.2-1.8,6.3-3.9,9.4-5.3c3.8-1.7,6.3-4.1,8.4-7.2c1-1.5,2.1-3.2,4.2-3.1c2.3,0.1,1.5,2.2,1.7,3.5c0.3,1.8,1.5,1.2,2.6,1.3
		c2.8,0.1,5.6-0.6,8.8,0.8c-1.8,2.2-3.4,4.1-6.3,4.2c-0.9,0-2,0.4-2.8,0.9c-1.9,1.3-1.8,3.4-0.9,4.9c1.1,1.9,3.4,1.2,4.2-0.2
		c3.1-5.7,9.8-7.4,13.5-12.3c2-2.6,4.9-4,7.7-5.3c1.4-0.6,2.8-1.5,4.1-0.1c0.6,0.7,1.3,1.8,1.2,2.6c-0.5,1.9-2.3,1.3-3.7,1.5
		C202.1,40.1,195.3,46.3,194.4,51.3C194.4,51.3,194.4,51.3,194.4,51.3z"/>
	<path class="st2" d="M268.2,35.3c-0.3,0-0.6,0-0.9-0.1c0.2-1.9,1-2.7,3-2.2c7.7,2,15,0.7,22.2-2.6c1.3-0.6,3-0.5,4.4-0.2
		c8.9,2.2,16.9-1.9,25.3-3.1c1.3-1.3,2.7-1.3,4,0c0.6,2.9,1.3,5.7,5,6c0.4,0.3,1,0.5,1.2,0.9c0.6,1.6,3.6,2.1,2.8,4.1
		c-0.8,1.9-3.2,0.8-5,1.1c-0.5,0-1.1,0.1-1.5-0.1c-6-3.9-12.8-3.7-19.5-3.9c-6.3,0-12.6,0-18.9,0.1c-4,0-7.9,0-11.9,0
		C275,34.4,271.6,37.3,268.2,35.3z"/>
	<path class="st2" d="M211.4,30.3c-5-0.3-9,2.3-12.8,4.8c-4.9,3.1-9.9,3.8-15.4,1.7c4-2.1,6.8-6.9,12.5-4.7c1.5,0.6,2.1-0.6,3-1.9
		c4.6-6.8,5.8-6.9,12.8-3.3c1.1,0.6,2.6,0.3,3.9,0.4C215.4,30.1,212.9,29.5,211.4,30.3z"/>
	<path class="st2" d="M332.2,23.3c4.6-0.7,7.8,1.7,11.1,4.4c2.6,2.1,1.8,3.8,0.3,5.9c-2.1,2.8-2.9-0.8-4.1-0.8
		c-4.3-0.1-4.4-6.8-9.3-5.5C326.8,23.9,331.8,24.8,332.2,23.3z"/>
	<path class="st2" d="M211.4,30.3c0.1-2.6,3.1-1.5,4-3c1.7-0.8,2.2-2.5,3-4c1.3-1,2.7-1.3,4,0c1.3,0,2.7,0.3,3.9-0.1
		c3.8-1,2.4,1.4,2.1,3.1c-0.5,3.3-2.8,1.3-4.3,1.5c-1.4,0.2-4.1-0.9-2.7,2.5c0.7,1.1,3.2,2.4-0.3,3c-1.2,0.2-2.5,0.6-3.7,1
		C214.8,33.8,213.4,31.5,211.4,30.3z"/>
	<path class="st2" d="M221.3,30.3c-1.2-0.2-2.5-0.4-2.4-1.9c0.1-1.2,1.4-1,2.4-1.1c2.4-0.3,4.9,0.8,7-1c2.5,1.6,5.9,0.4,8.2,2.8
		c-1.7,2.2-3.9,2.2-6.2,2.2c-1-1.8-2-1.1-3,0C225.3,30.9,224.3,25.1,221.3,30.3z"/>
	<path class="st3" d="M326.2,27.3c-1.3,0-2.7,0-4,0c-0.6-1.2-1.3-2.5,0.3-3.5c1.2-0.7,2.6-0.9,3.8-0.1
		C327.8,24.8,326.6,26.1,326.2,27.3z"/>
	<path class="st2" d="M222.3,23.3c-1.3,0-2.7,0-4,0c1.4-3.1,4-3.9,7.8-2.8C224.9,21.4,223.6,22.3,222.3,23.3z"/>
	<path class="st2" d="M211.4,30.3c3.2-0.4,4.1,2.5,6,4C214,34.9,212.1,33.5,211.4,30.3z"/>
	<path class="st2" d="M254.3,12.3c-2,4.1-5.7,2.8-9,3C248.3,14.2,251,12.5,254.3,12.3z"/>
	<path class="st5" d="M260.3,35.3c0.1,1.4,1.1,3-0.7,4c-0.4,0.2-1.1,0.3-1.3,0c-1.5-1.3-0.5-2.7,0.1-4
		C259,35.3,259.6,35.3,260.3,35.3z"/>
	<path class="st2" d="M133.3,101.4c0.7-2.1,1.3-4.2,2-6.3C136.5,97.8,135.2,99.8,133.3,101.4z"/>
	<path class="st2" d="M227.3,31.3c0.1-1.7,0.2-3.3,2.7-2.6c2.1,0.6,1.3,1.6,0.3,2.6C229.3,31.3,228.3,31.3,227.3,31.3z"/>
	<path class="st2" d="M426.1,159.1c0-0.6,0-1.2-0.1-1.9c-1.7-2.1-0.5-4,0.6-5.9c1-1.9,1.7-3.9,2.6-5.4c-1.7,1.9-2.8,6-6.5,4.6
		c-3.2-1.2-1.4-4.6-1.1-7.2c-4.2,1.1-4.8-1.2-4.3-4.3c0.5-3.5-0.1-6.6-3-8.8c0.6-3.3-1.2-6.3-2.5-8.8c-4.3-7.9-6.4-17-12.3-24
		c-1.1-1.3-1.2-2.7-1.2-4.1c-0.9-6.9-7.3-9.3-11.4-13.6c-0.2-0.2-0.7-0.2-0.9-0.4c-4.5-6-11.4-8.5-17.6-12c4.3-3.4,7.7-0.3,10.6,1.4
		c-2.2-1.6-4.9-3.1-8.5-3.7c-4.2-0.7-6.4-4.5-6-9c0.3-3.8-1-5.2-4.8-4.7c-2.9,0.4-5.7,0-7.3-3c1-1.2,3.9-1.4,2-4
		c1.3-1.2,2.7-1.3,4,0c0.6,5.1,4.1,3.4,7,3c6.6-2.8,6.6-2.8,11.3,2.7c0.4,0.5,1,0.8,1.7,0.3c3.6,2.3,7.2,4.6,10.9,6.9
		c2.9,1.8,5.1,4.2,6.1,7.5c0.5,1.8,1.1,3.8,3,4.4c7.3,2.1,9.3,9.9,15,13.8c1.7,1.2,3.3,3.9-0.4,5.3c-0.7,0.3-1.2,0.7-1,1.5
		c0.3,0.9,1.1,1.3,2,1.1c4.5-1.3,4.3,1,3.6,4.2c-0.6,2.8,0.4,5.2,2.5,7.2c0.7,0.6,1.2,1.7,2.4,0.7c4.6-3.6,4.9,1.2,5.6,3.4
		c0.7,2.3,0.9,4.5,3.5,5.5c0.4,0.2,1,0.7,1,1c-1.2,5.1,3.3,8.5,3.8,13c0.4,3.5,2,6.6,4.1,9.5c1.7,2.3,2.8,4.6,2.2,7.8
		c-0.6,3,2.2,5.4,2.8,8.3c1.2,5.9-0.8,9.8-6.5,11.7c-1.1,0.4-2,1.1-3.1,1.5c-1.7,0.7-3.7,0.5-4.1-1.4
		C430.8,160,428.5,159.6,426.1,159.1z"/>
	<path class="st2" d="M352.2,48.3c3,0.7,5.6,2.2,9.1,1.2c3.8-1.1,5.3,1,4.8,5.2c-0.7,6.3,1.4,7.9,7.5,9c4.1,0.7,7.1,4.6,9.7,8.2
		c-5.3-1-9.2-6.3-15.1-4.6c-3.2-0.5-3.2-0.5-5.2-3.5c-0.6,1-1.1,2-1.8,2.9c-0.5,0.6-1.1,1.3-2,1c-1-0.3-1.1-1.3-0.9-2
		c1.2-5.7-1.9-9.2-6-12.3C352.2,51.6,348.5,49.9,352.2,48.3z"/>
	<path class="st2" d="M344.2,45.3c0.7-3.4,3.7-4.8,6.3-5.7c2.8-0.9,6-0.3,8.5-2.9c1.2-1.2,3.2-0.1,4.2,1.4c1.1,1.7,1.6,3.4-1.1,4.2
		c-3.9-2.2-7.3,0.7-11,1c-0.3,1-0.7,2-1,3C348,47.1,346.2,45.6,344.2,45.3z"/>
	<path class="st2" d="M378.1,50.2c-1.2,1.3-2.5,1.1-3.1-0.4c-1.6-4.1-4.1-3.9-7.3-2c-0.9,0.5-1.9,0.3-2.6-0.6
		c0.1-1.9-0.3-4.2,2.3-4.8c2.2-0.5,4.1-0.1,5.9,1.5C375.5,45.8,376.3,48.4,378.1,50.2z"/>
	<path class="st2" d="M351.2,43.3c-1.2-1.3-0.4-2.8,0.7-2.2c4,1.7,7-3.7,10.8-1c0.2,0.2-0.3,1.5-0.5,2.3c-1.3,0.7-2.7,1.3-4,2
		c-1.3,0-2.7,0-4,0C353.2,43.9,352.2,43.6,351.2,43.3z"/>
	<path class="st2" d="M423.1,97c-0.2,1,0.3,2.8-1.4,2.6c-1.8-0.2-2.6-1.9-2.6-3.7c0-1.5,0.4-2.7,2.2-2.5
		C423.4,93.7,422.9,95.6,423.1,97z"/>
	<path class="st2" d="M344.2,45.3c2.3-1.7,4.2-0.3,6,1C347.5,50,345.8,47.6,344.2,45.3z"/>
	<path class="st5" d="M354.2,320.8c0,0.7,0,1.3,0,2c-0.9,0.7-2,1.3-2.8,2c-5,4.6-9.8,9.1-16.1,12.4c-4.4,2.3-8.2,3.9-13,3.7
		c0-3.7-0.1-7.4-0.1-11.1c-1.1-1.1-1.8-2.5-1.8-4c0-13.8-0.9-27.5,0.5-41.3c1.4-2.9,3.1-2.1,4.3-0.1c2.9,4.8,7.9,8,9.8,13.6
		c0.5,1.5,2.1,1.3,3.4,1.5C346.2,304.7,351.8,311.5,354.2,320.8z"/>
	<path class="st5" d="M180.4,284.9c0.1,1.6-0.6,3.6,0.7,4.8c3.8,3.7,1.8,6-1.7,8.2C175,293.2,179.4,289.2,180.4,284.9z"/>
	<path class="st5" d="M193.4,275.9c5.3,2,3.1,4,0,6C194.1,279.9,194.1,277.9,193.4,275.9z"/>
	<path class="st5" d="M399.1,137.1c-0.3,2.9,0.5,5.5,2,7.9c-0.7,0.6-1.3,0.6-2,0c-3.1-6.4-9.6-8.1-14-3.4c-1.3,1.4-1.7,0.8-2.7-0.1
		c-5.1-4.6-8.9-4.7-13.5,0c-1.8,1.8-3.1,1.7-4.2-0.5c-1.3-2.4-3.3-3-5.8-3c-2.5,0-5.7-0.3-6.2,2.8c-0.7,3.6,3.2,1.5,4.7,2.8
		c0.9,0.8,3.2-0.1,3.1,1.7c-0.1,2-2.1,1.7-3.5,1.7c-3.4,0-6.7-0.1-5,5.1c0.7,2.1-0.6,3-2.8,2.7c-5.7-0.7-11.4-1.3-16,3.5
		c-0.3,0.3-0.9,0.4-1.4,0.5c-2.2,0.3-11-5.1-11.3-7.1c-0.4-2.4-0.7-4.7,2.1-6.5c3.6-2.2,3.9-6.3,0.8-9c-2.3-1.9-1.7-2.7,0.2-4.5
		c2.6-2.4,4.7-5.3,5.6-9c2-8,5.3-10.8,13.4-11.6c3.5-0.3,5-1.3,2-4.4c-1.5-1.6-2.1-3.5-0.3-4.7c2.3-1.5,2.6,0.8,3,2.4
		c0.4,1.5,1.4,2.3,2.9,2c1.3-0.3,2-1.2,1.9-2.5c-0.1-2.6,2.4-4.8,2.5-6.3c0.6-6.4,5.6-6,9.3-8c3.4-1.9,4.4-5.6,4.7-9.3
		c0.1-1.4-2.1-3.1,0.5-4.1c0.7-0.3,1.9-0.5,2.3-0.2c1.6,1.5-0.1,3-0.6,4.8c6-3.2,8,4,12.8,4.8c-5.7-2.2-9.4,1.9-13.8,3.4
		c-2.2,0.8-3.4,1.8-3.6,4.1c-0.1,1.5,0.6,2.7,2.1,2.9c2.2,0.4,4.5-0.3,5.1-2.2c1.6-4.2,4.2-3.9,7.6-2.9c1.9,0.6,3.9,0.2,5.9-0.5
		c1.2-0.4,2.4,0.1,3.2,1c1.2,1.5-0.7,1.8-1.2,2.7c-1.5,2.2-3,4.3-4.4,6.6c-3,4.8-0.7,9.9,4.9,10.4c2.4,0.2,4.7,1.6,7.3,0.4
		c1.8-0.8,2.8,0.8,3.2,2.2c0.7,3,2.4,5,5.8,5.7c-2,2.1-3.7,3.9-5.4,5.7C398.7,129,400.5,133.2,399.1,137.1z"/>
	<path class="st21" d="M380.1,159c-4.4,0.1-8.5,0.4-12.8,2.6c-5.8,3-12.7,4-18.7,6.7c-5.6,2.4-11.8,2.5-17.1,5.6
		c-1.6,1-3.4,1.2-5.3,1.2c-5.8,0.2-3.4-4.3-4.1-7c8.9-0.4,17.1-3.3,25.6-5.8c11-3.3,21.1-8.8,32.4-11.2c1.1-1,2.3-1.2,3.7-0.8
		c1.4,0.7,2.7,1.5,3.7,2.8C387.7,158.3,383.6,158.3,380.1,159z"/>
	<path class="st3" d="M387.2,153.1c-1.4,0-2.8-0.1-3.1-2c3.3-3.3,7.8-4.3,12-6c1,0,2-0.1,3-0.1c0.7,0,1.3,0,2,0c0.3,0,0.7,0,1,0
		c1.1-1,2.2-2.1,3.6-2.6c4.1-1.5,6.9-4.2,8.3-8.3c0-1.3,0.1-2.7,0.1-4c3.4-0.4,4.9,1.5,4.9,4.6c0,2.4-0.4,4.9-0.6,7.4
		c1.4,0.9,1.5-0.6,2-1.2c0.8-0.8,1.8-0.9,2.7-0.4c1,0.6,1,1.7,0.6,2.7c-0.4,1.1-1.2,2-1.5,3.1c-0.3,1.1-0.5,2.5,0.6,3.2
		c1.4,0.9,2.1-0.3,2.6-1.3c1.2-2.4,4.1-3.2,5.4-6.7c0.4,6.8-4.2,10.6-4.9,15.8c-3.3-1.2-3.8-4.8-5.7-7.2c-2.6-3.2-5.5-3.5-8.8-2.5
		c-4.2,1.3-7.8,4.2-12.5,4c-0.3,0-0.7,1-1.1,1.5C394.4,155.9,390.8,155.6,387.2,153.1z"/>
	<path class="st9" d="M396.1,145.2c-2.8,4.3-7.8,4.5-12,6c-1.3,0-2.7-0.1-4-0.1c0.6-4,1.7-7.4,6.9-4.7c2,1,2.4-0.7,3.4-1.7
		C392.4,142.8,394.5,141.7,396.1,145.2z"/>
	<path class="st9" d="M414,134.1c0.1,6.1-4.4,10.2-11.9,10.9c-0.3-1-0.6-1.9-0.8-2.9c-0.2-1.2-0.4-2.4,0.8-3.1c1.3-0.8,2,0.9,3,1.1
		c2.8-0.6,2.9-4.7,6-5C412.1,134.8,413,134.5,414,134.1z"/>
	<path class="st5" d="M363.1,75.7c-0.1,3.4,0.9,6.8-2.3,9.3c-1.1,0.9-2.3,1.5-3.6,0.4c-1.5-1.3-0.3-2.4,0.5-3.4
		C359.2,79.8,362.1,78.7,363.1,75.7z"/>
	<path class="st5" d="M411.1,135.1c-0.7,1.4-1.5,2.8-2.2,4.2c-0.9,1.7-2.1,2.4-3.8,0.8c-0.6-3,0.7-5.5,3-7.1
		C410.1,131.6,412,131.7,411.1,135.1z"/>
	<path class="st5" d="M394.1,99.6c1.9,0.4,2.4,2.1,2.8,3.6c0.3,1.3-0.3,2.5-1.7,2.5c-1.9,0.1-3.1-1-3-3.1
		C392.2,101.3,392.4,100,394.1,99.6z"/>
	<path class="st5" d="M347.2,93.2c1.3-1.1,0.8-2.6,1.1-4c0.7,0.4,1.5,0.7,2.1,1.3c1.7,1.6,2.2,3.7,0.2,5.1
		C348.3,97,348.1,94.4,347.2,93.2z"/>
	<path class="st5" d="M320.1,139.1c-0.9,2.8-0.5,4.9-2.8,5.5c-0.2,0.1-0.9-0.5-0.9-0.9C316.1,141.4,317.7,140.6,320.1,139.1z"/>
	<path class="st5" d="M399.1,137.1c0.5-4-1.1-8.1,1-12C399.6,129.1,401.2,133.3,399.1,137.1z"/>
	<path class="st5" d="M382.2,231c7.1-1,13.3,2.2,19.3,4.9c3.4,1.5,7.6-0.1,10.4,3.7c1.1,1.5,2,2.6,2.2,4.5c0.9,8.2-3,15.3-4.8,22.9
		c-1.1,4.7-4.9,8.2-5.3,13c-5.3-5.1-11.7-9.3-13.8-17c-7.2-9.1-13.2-19.1-20.5-28.2c-0.9-1.1-2.1-2.2-2.5-3.7
		c-0.9-3.3,1-5.5,4.1-4.4C374.9,227.9,379.1,228.2,382.2,231z"/>
	<path class="st22" d="M382.2,231c-3.2-1-6.5-1.9-9.7-3.1c-1.5-0.5-2.9-1.4-3.9,0.2c-0.8,1.3-0.7,3,0.5,4.2
		c7.7,7.5,11.3,18.1,19.2,25.4c1.6,1.5,2,3.3,1.8,5.4c-4.7-3.2-7.7-8-10.9-12.4c-6-8.3-10.7-17.5-18.7-24.3
		c-0.8-0.7-0.9-2.1-1.3-3.1c7.5-0.4,13.9,3.7,20.8,5.4C381.2,228.8,382,229.6,382.2,231z"/>
	<path class="st17" d="M338.8,204.2c-3-1.7-5.5-3.9-8.5-5.4c-1.4-0.7-1.5-2.9-0.7-4.5c0.3-0.5,0.9-1.3,1.2-1.3
		c1.5,0.2,1.9,1.6,2.6,2.7C335.3,198.5,337.1,201.3,338.8,204.2z"/>
	<path class="st23" d="M358.2,217c0,1.3,0,2.7,0,4c-2.6-1.1-2.6-4.1-4-6C355.8,215.1,357.7,214.5,358.2,217z"/>
	<path class="st17" d="M348.7,214.4c-0.3,1.1-0.6,2.3-2.1,2.3c-0.8,0-1.2-0.6-1-1.3c0.2-1,0.6-2,1.8-2.1
		C348.2,213.2,348.7,213.5,348.7,214.4z"/>
	<path class="st17" d="M301.7,169.1c-0.4,1-1.2,0.9-2,0.8c-0.8-0.1-1.7-0.5-1.7-1.4c0-1,0.9-1.4,1.7-1.1
		C300.5,167.7,301.6,167.9,301.7,169.1z"/>
	<path class="st5" d="M228.3,334.8c-2.2,0.1-4.5-0.5-6.5,1.4c-1.1,1-2.4,0.8-3.5-0.4c1.7-3.4,0.1-4.7-3.1-4.4
		c-2.7,0.3-3.5-0.4-3.5-3.1c0.1-2-1-3.4-3.4-2.5c-1,0.5-2.1,0.9-3.1,1.4c-2,0.9-3.8,0.3-4.5-1.6c-0.9-2.3,1-2.9,2.8-2.8
		c2.5,0.2,3.1-2.3,4.8-3c1.9-1.1,2.5-2.3,1.8-4.8c-1.2-4.6-1.2-9.5,0.6-14.1c1.4-3.5,0.5-7.1,0.1-10.7c-0.2-2.1-0.4-4.2,0.4-6.3
		c1-1.8,2.8-3.1,3.3-5.3c0.3-1.2,1.4-2.3,2.8-2.4c2-0.1,1.6,1.6,2,2.7c0.5,1.4,1,2.8,2.8,3c1.1,0.2,1.8,1.4,3.1,1.4
		c-0.3-1.2-0.7-2.3-1.1-3.4c0.3-2-0.7-4.2,1-6c6-5,14.6-5.6,21.4-1.6c2.2,1.3,2.4,7.2-0.4,9.9c-2.3,2.2-2.3,4.4-2.3,7.1
		c-0.1,12.3-1.7,24.4-2.2,36.7c-0.1,1.4-0.7,2.5-1.4,3.7c-1.6,1.8-4.2,2.2-5.4,5.1C234.1,336.9,230.7,335.2,228.3,334.8z"/>
	<path class="st5" d="M239.3,329.8c1.9-5.2,1.4-10.9,1.7-16.2c0.4-9.5,2.9-19,0.6-28.6c-0.4-1.7,0.1-2.8,2.1-3.1
		c4.3-0.7,3.6-4,3.6-6.9c0-1.4-1.1-2.4-2.3-1.6c-2.7,1.6-3.8-0.3-5.8-1.5c-3.1-1.8-7-1.8-10.4,0.2c-1.1,0.7-2,1.8-3.4,1.8
		c1.5-5.8,7.4-4.4,11.6-6.3c-2.4-2.6-5-1.3-7.3-1.7c-1.4-0.2-2.6-0.5-3.1-2.1c-0.4-1.5,0.2-2.7,1.5-3.2c5.3-2.2,5.8-7.6,8.2-11.8
		c1.7-3,2.7-6.3,5.8-8.4c2.9-1.9,4.2-1.6,4.2,2.1c0,2.5-0.5,5.2,1,9c1.4-5.4,1.2-9.5,0.4-13.6c-0.3-1.5-0.7-2.9,0-4.4
		c0.5-1,1.4-1.4,2.5-1.4c1.5,0,1.4,1.1,1.2,2.1c-0.4,2.2,0.5,3.8,1.9,5.4c0.6,0.7,1,1.8,1,2.7c-0.2,7.5,0.9,14.9-0.7,22.4
		c-0.3,1.5-0.1,2.9,0.3,4.4c0.6,2.7,0.3,4.6-2.8,6.4c-3.4,2-3.5,5.8-1.7,9.4c1.6,5.3,1.3,10.7,0,16c-2.1,4.6-0.6,9.3-0.9,14
		c0,0.4,0.2,1.1,0.5,1.3c6.6,3.9,2.6,9.6,2.4,14.6c-6-2-5.3-7.1-5.4-11.8c-1.2-3.5-1.3-7-1.1-10.2c-0.4,3.5,0.3,7.5,1.2,11.4
		c-0.3,2.9-0.3,5.8-2.3,8.2C242.5,329.8,241.4,331.3,239.3,329.8z"/>
	<path class="st5" d="M211.4,283.9c2.7,10.6-1.2,21.4,0.5,32.1c0.4,2.6-1.4,3.5-3.5,3.9c0.2-1.2,2.4-2,0.8-3.4
		c-1.3-1.1-2.4-0.2-3.5,0.6c-1,0.8-2.1,1.6-3.2,2.3c-4,3-8.7,1.9-10.9-2.6c-0.4-0.9-1.3-2-0.5-2.8c2.1-1.9,1.6-5.4,2.8-6.7
		c4.4-4.6,5.2-11.1,9.4-15.6c0.9-0.9,2.2-1.3,3.1-0.6c1.5,1.2-0.1,2-0.7,2.8c-1.4,1.8-3.8,2.9-4.1,5.4c-0.1,0.9-0.3,2.2,0.7,2.6
		c1.2,0.5,1.6-0.7,2-1.6c2.1-4.5,2.5-4.6,6.3-1.7C211,293.8,208.4,288.7,211.4,283.9z"/>
	<path class="st5" d="M239.3,329.8c2.6,0.2,3.2-1.6,4.1-3.5c0.9-2.1,0.3-4.6,1.9-6.5c0.3-0.3,0.4-1,1-1c2.1,3.8,0.6,9.1,5,12
		c-0.6,0.3-1.6,0.9-1.6,0.8c-3.3-4.5-6.4-1.3-9.7,0c-1.7,0.7-3.6,0.3-2.1,3.3c0.8,1.7-1.3,1.9-2.6,1.8c-2.5-0.1-4.9-0.6-7-2
		c2.8-0.1,6.1,1.2,7.2-3.2C235.7,330.7,238,330.4,239.3,329.8z"/>
	<path class="st5" d="M249.3,300.9c-1.8-5.3-1.3-10.7,0-16c1-0.3,2-0.7,3-1c0.8,5.3,0.8,10.7,0,16
		C251.3,300.2,250.3,300.5,249.3,300.9z"/>
	<path class="st5" d="M208.4,325.8c2.2-1.8,3.6-0.6,3.8,1.6c0.3,2.9,1.7,3.5,4.2,3.5c5-0.2,4.4,2.1,1.9,5c0-2.9-1-4.5-4.3-3.4
		c-2.4,0.8-4.1,0.5-3.1-2.8C211.7,327.3,210.6,326.2,208.4,325.8z"/>
	<path class="st5" d="M250.3,337.8c-1.3,0.7-1.5,3.4-3.7,2.3c-1.9-0.9-1.7-3.2-1.7-4.8c-0.1-2.2,2.1-1.2,3.4-1.5
		C249.6,334.9,251.9,335.4,250.3,337.8z"/>
	<path class="st5" d="M224.3,279.9c0.7,0.5,1.4,0.9,2,1.5c1.4,1.3,2.8,2.8,0.5,4.4c-2.2,1.5-2.7-0.9-3.5-2.1
		c-0.4-0.5-0.6-1.2-0.9-1.7C223,281.2,223.7,280.6,224.3,279.9z"/>
	<path class="st5" d="M224.6,268.1c-0.8,1.3-0.8,3.4-2.8,4.1c-0.6,0.2-1.3-0.8-1.1-1.3c0.9-1.5,0.9-3.9,3.1-4.4
		C224.4,266.3,224.8,267.2,224.6,268.1z"/>
	<path class="st5" d="M252.3,299.9c0-5.3,0-10.7,0-16C253.9,289.2,253.9,294.6,252.3,299.9z"/>
	<path class="st1" d="M188.4,322.8c0.7,0,1.3,0,2,0c2.1,0.6,3.4,1.9,4.1,4C191.2,327.5,189.8,325.1,188.4,322.8z"/>
	<path class="st5" d="M250.3,337.8c0.1-1.7-1.4-2.6-2-4c1.9,0.1,4.3-0.5,5,1.7C253.8,337,251.8,337.6,250.3,337.8z"/>
	<path class="st5" d="M163.4,141.1c-0.2-2-1.3-3-3.3-2.9c-1.5,0.1-2.4,1.1-2.6,2.6c-0.6,4.3-4.2,3.5-5.3,1.8
		c-3.9-5.7-9.8-3.7-14.8-4.3c-4.1-0.5-5.7-3.7-8.3-5.6c-1.3-1,2.7-5,5.7-5.4c6.2-0.8,6.2-0.8,6.7-6.8c0.1-1,0-2,1.6-2.6
		c0.5,2.1,1,4.1,1.6,6.1c0.3,1,1,1.8,2.1,1.8c1.3,0,1.5-1,1.9-2c1.4-3.1,0.8-6.3-1.7-8.1c-3.3-2.4-3.8-3.9-0.1-6
		c0.9-0.5,1.5-1.3,1.2-2.5c-0.2-0.7-0.8-1-1.6-0.9c-1.3,0.1-2.8,0.9-3-1.3c-0.2-1.8-0.3-3.9,1.7-4.8c2.8-1.2,4.3-4.5,8-4.5
		c2.2,0,3-2.7,0.9-4c-5.8-3.6-2-4.5,1.4-5.8c0.2,0.2,0.6,0.3,0.7,0.5c1.5,8.6,1.5,8.5,10.1,8.6c3.8,0,7.6-0.5,11.4,0.5
		c4.1,1.1,3.2-2.7,4.1-4.8c0.5,0.2,1.1,0.3,1.3,0.6c2.3,3.7,3.9,4.1,5-0.7c0.2-1,1.2-1.6,2.3-1.7c1,3.9,4.8,6.2,6,10
		c-1.9,3.4-1.4,5.9,1.1,9.4c3,4.1,1.2,10.4-2.4,15.4c2.8-1.6,5.5-5,8.8-1.9c2.4,2.3,5.2,4.9,5.8,8.5c0.6,3.6,3.1,6.2,4.4,9.4
		c0.4,0.9,1.1,1.9,2.2,1.2c1.1-0.7,0.6-1.8,0.2-2.7c-1.5-3.1-3.5-6-4.9-9.2c-1.6-3.4-0.5-5.5,2.8-6.2c2.5,5,5.9,9.4,9,14
		c0.5,3.6,0.6,7.4,5.1,8.9c1.8,0.6,1.9,2.5,0.9,4.1c-3.6,2.5-7,5.2-11.7,5.3c-1,0-1.8,1.3-1.3,2.7c3.4,2.2,7,3,10.7,0.8
		c2-1.2,3.5-0.3,5,0.7c0.9,0.6,1.4,1.5,0.8,2.6c-0.5,0.9-1.4,0.5-2.2,0.6c-7.5,0.5-14.6-0.7-20.9-5.2c-1.3-1-3-0.5-4.5,0.8
		c-3.5,2.8-5.5,2.1-7.9-2.2c-1.2-1.2-1.8-2.6-2-4.4c-0.7-5-4.8-7.7-8-10.8c-2.1-2-6.2-1.7-7.8,0.3c-2.8,3.4-5.7,2.4-8.8,1.8
		c-1.8-0.4-3.6,0.1-5.3-0.9C164.8,141.8,164.1,141.4,163.4,141.1z"/>
	<path class="st5" d="M165.4,142.1c2.3,0.1,4.7,0,6.9,0.2c2,0.2,3.8,2.2,4.2-2.2c0.3-3.2,12.1-2.4,14.2,0.7c3.1,4.7,6.8,9,6.6,15.2
		c-2.3-0.4-2.7-2.2-3-4c-0.2-1-0.4-2.2-1.6-2.1c-1.1,0.1-1.4,1.3-1.4,2.3c-0.1,5.5-2.4,4.1-4.9,1.5c-1.7-1.7-3.5-3.1-5.8-3.7
		c-0.5-0.1-1.2-0.2-1.4-0.5C176.8,143.1,170,144.8,165.4,142.1z"/>
	<path class="st5" d="M216.4,158.1c-1.6-1.8-0.8-3.5,1-3.6c3.7-0.2,6.8-0.8,9.1-4.1c0.3-0.5,1.9-0.2,2.8-0.3
		c-2.1,2.9-4.1,5.8-8.6,5.2C219.1,155.1,217.3,156.3,216.4,158.1z"/>
	<path class="st2" d="M271.9,43.1c0,26.6,0,53.2,0,79.8c-0.5,0-1,0-1.5,0c-0.2-26.6-0.1-53.2-0.1-79.8
		C270.8,43.1,271.3,43.1,271.9,43.1z"/>
	<path class="st5" d="M242.3,138.1c3.4-3.5,1.4-8.3,2.6-12.3c0.2-0.8-0.6-1.9-1.6-2.3c-1.3-0.4-1.5,0.7-2.1,1.5
		c-3.1,4.3-3.9,4.3-7-0.5c-0.5-0.8-1.1-1.1-1.9-1.4c-3.5-1-3.9-3.9-3.4-6.7c0.8-4.3,1-8.2-2.9-11.3c-1.5-1.1-1-2.2,0.2-3.3
		c0.9-0.7,1.8-1.5,2.4-2.4c1.3-2,0.4-4.1-0.9-5.5c-1.4-1.6-2.6,0.2-3.7,1c-3.9,2.8-4.4,2.6-7.1-1.7c-0.3-0.6-0.7-1.4-1.2-1.5
		c-7.9-2-8.5-9-10.4-15.1c-0.4-1.2-0.9-2.2-2.3-2.2c-1.6,0-2.2,1.1-2.6,2.5c-0.4,1.6,1.2,3.1,0,4.8c-2.3-0.6-2.6-2.5-2.9-4.2
		c-0.3-1.5-0.6-3-1.8-4c-2.3-1.8-4.3-2.8,0.1-5.2c2.8-1.5,2-6,2.7-9.2c0.3-1.2-0.2-3.2,1.7-3c1.7,0.2,1.5,2.1,1.1,3.3
		c-0.7,2-0.7,3.5,1.6,4.4c2.3,0.8,3.9,0.1,4.9-2c1.1-2.2,5.9-3.7,1.5-7.1c-0.2-0.1,0.1-1.2,0.2-1.2c3.3-0.9,3.8-4.4,5.8-6.5
		c4.4-4.9,8.2-4.9,12.8,0.1c1.3,1.4,2.6,0.9,4.1,0.5c8-2,16.1-3.7,24.5-3.6c3.2,0.1,4.7,1.1,4.7,4.2c0,24.9,0,49.9,0,75.2
		c-2.7-1.8-2-4.1-2-6.2c0-21.3,0-42.6,0-63.9c0-1.3,0-2.7-0.1-4c-0.1-1-0.2-2.1-1.5-2.2c-1-0.1-1.3,0.9-1.7,1.6
		c-0.9,1.5-0.8,3.2-0.8,4.9c0,24,0,47.9,0,71.9c0,3.9,0.6,7.5,3.2,10.7c1.7,2.1,2.2,4.1-2,3.4c-1.8-0.3-3.5,1-4.9,2.1
		c-1.7,1.3-2,2.8,0.7,3.5c0.9,1.8,0,2.9-1.5,3.6c-1.6,0.7-3.3,0.1-3.9-1.2C245.4,144.4,243.1,141.6,242.3,138.1z"/>
	<path class="st5" d="M214.4,123.1c-3.1,1.4-2.8,3.6-1.4,6c1.8,3,3.6,6,5.3,9c0.8,1.4,1.6,3.1,0.3,4.6c-0.8,0.9-1.9,1.4-3.1,1.2
		c-1.8-0.4-2.4-1.6-3.2-3.2c-2.8-5.6-4.5-11.8-8.3-17c-1.7-2.3-4.4-2-6.2,1.1c-0.7,1.2-1,2.5-2.8,2.3c-1.3-0.2-2.2-0.8-2.4-2.2
		c-0.3-1.7,0.3-2.9,1.9-3.6c3.1-1.3,3.2-3.9,2.5-6.7c-0.8-3.3,0.7-7.6-4.7-8.9c-1.6-0.4-1.1-3,0.5-4c1.2-0.8,2.9-0.9,3.5-2.5
		c2,2.7,4,5.3,6,8c-0.6,3.8,1.4,6.8,3,10c1,2,2,0.8,3,0c6.7,2-0.8,4.8,0.4,7.2C211,126,211.8,120.1,214.4,123.1z"/>
	<path class="st5" d="M208.4,117.1c0.9,1.7,1.1,3.2-1.2,3.8c-1.9,0.5-2.6-0.6-2.9-2.3c-0.3-2.2-1.9-3.7-2.9-5.6
		c-1.2-2.2-1.7-4.3,1-5.9C206.5,109.2,205.2,114.5,208.4,117.1z"/>
	<path class="st5" d="M187.4,84.2c-1.7,3.2-5.4,2.1-7.9,3.5c-1.2,0.7-2.1-1.6-2-3.2c0-1.4,0.2-2.7,2.1-2.7c2,0.1,3.9,0.2,5.9,0.3
		C186.1,82.9,186.7,83.5,187.4,84.2z"/>
	<path class="st2" d="M220.4,347.8c-2.7,5.2-7.6,3.7-12,4c3.5-1.3,7.6-1.2,10.3-4.5C218.8,347.1,219.8,347.6,220.4,347.8z"/>
	<path class="st17" d="M308.2,285.9c4.2-1.8,4,1.2,4,3.7c0.1,9.4,0,18.8,0,28.2c-3,0.4-3.4,2.7-4,5c-0.2,0.6-0.3,1.4-1.1,1.4
		c-1,0.1-1.5-0.7-1.7-1.5c-0.3-1.5-0.7-3.3,0.5-4.3c2.9-2.3,2.3-5.3,2.3-8.2C308.2,302.1,308.2,294,308.2,285.9z"/>
	<path class="st17" d="M320.2,266.9c0.3,2.9-1.6,3.9-3.9,4.8c-4.1,1.6-7.7,3.7-8.1,8.7c-0.2,2.7-2.2,2.3-4,2.4
		c-3.3-9.3,2.2-14.6,11.1-15.9C316.9,266.8,318.6,266.9,320.2,266.9z"/>
	<path class="st17" d="M356.2,311.9c-3.7,0.2-5.8-0.9-4.5-5.2c0.9-2.9-0.5-3.9-3.4-3.4c-3,0.6-4.6-0.7-3.8-3.8
		c0.8-2.9-1.2-5-1.3-7.6c6.4,2.9,9.9,8.8,13.7,14.3C357.7,307.4,356.4,309.9,356.2,311.9z"/>
	<path class="st17" d="M395.1,346.8c-4,0.3-8.1-0.9-12,1c0.1-1.9-0.2-3.5-1.4-5.1c-1.3-1.7-2.5-3.6-3.2-5.6c-0.7-2-0.9-4.3,0.4-6.2
		c0.6-0.9,1.7-1.2,2.6-0.6c1.9,1.1,2.5,3.1,2.5,5.1c0,2.3,1.4,4.1,1.7,6.2c0.6,3.4,2.6,4.3,5.6,4.2
		C392.7,345.8,394.1,345.6,395.1,346.8z"/>
	<path class="st17" d="M351.4,290.9c-2.2-0.1-5.1,0.4-5-3.1c0.1-2.9,1.5-5,4.9-4.9c2.9,0.1,4.7,1.4,4.8,4.4
		C356.2,290.6,354,291,351.4,290.9z"/>
	<path class="st17" d="M341.2,282.9c-2.3,0.4-4.2-0.7-6-2c0-1.7,0.1-3.6,2.3-3.7c2.3-0.2,2.4,1.7,2.8,3.4
		C340.5,281.4,340.9,282.1,341.2,282.9z"/>
	<path class="st5" d="M387.2,153.1c3.6,0,7.2-0.1,10.8-0.1c3.3,0.1,6,2.4,9.5,2.3c2.7-0.1,3.4,2.9,1,4.6c-5.2,3.8-4.5,9.6-5.5,14.7
		c-0.5,2.6-0.1,5.3,0,8c0.1,2.2-0.1,4.2-2.2,5.7c-1.5,1.1-2.2,3-1.5,4.9c0.6,1.7,1.3,3.3,3.5,1.5c1.1-0.9,2.4-2.6,3.7-0.8
		c1.1,1.7,0.7,3.9,0,5.8c-0.5,1.3-1.3,2.7-2.9,1.8c-4.2-2.3-4,1.3-4.5,3.4c-0.5,2.3,0,4.6,0.6,6.9c1,4.1-0.5,5.9-4.7,6.1
		c-1,0.1-2,0.1-3,0.2c-0.9,0.1-1.9,0.4-3.1,0.7c0-1.6,0.1-2.9,0-4.1c-0.2-2.1-1.5-3.3-3.5-3.7c-2.2-0.4-3.5,0.6-4.1,2.6
		c-0.4,1.4-0.3,3.4-2.4,3.1c-2.3-0.4-4.8-0.7-6.5-2c-1.9-1.4,0.6-2.5,1.4-2.4c4.9,0.4,7.6-4.4,12.3-4.8c2.4-0.2,1.9-2.4,0.3-3.6
		c-2.2-1.6-4.6-1.4-6.9,0.2c-1.2,0.9-2.4,2-3.8,2.3c-2.1,0.6-4.7,1.5-5.7-1.9c-0.5-1.6-1.8-2.1-3.1-1c-1.2,1-0.8,2.5,0.2,3.5
		c1.5,1.5,4.9,3.1,1.9,5.2c-2.1,1.5-2.9-1.8-4.1-3.6c-2.1-3.1-6.1-2.9-8.9-2.5c-5.4,0.9-5.1-1.9-4.6-5.3c0.1-1.1,0.6-2.3,0.7-3.4
		c0.3-2.5-4.2-10.1-6.5-11.1c-2.5-1.2-3.9,1-6.1,2c1.1-5.8,6.4-8.4,9-12.8c0.9-1.6,3.2-1.6,5.4-0.5c3.6,1.9,7.5,1.6,10.7-1.2
		c2-1.7,3.9-2.5,6.2-0.8c1.5,1.2,2.7,0.7,3.7-0.8c2.2-3.1,4.9-4.8,9-3.3c2.7,1,4.4,0.1,4.8-3c0.4-3.1-1.4-3.8-3.8-3.9
		c-2.2-0.1-4.6,0.3-4.4-3.1c0.2-1.6,1.5-1.8,2.8-2.1C384.9,156.4,386.8,155.6,387.2,153.1z"/>
	<path class="st5" d="M400.9,221.5c3.1-1.9,3.8-3.8,2.3-6.3c-0.5-0.9-0.9-1.9-0.3-2.8c0.9-1.4,0.9-4.2,3.2-3.7c2,0.5,2,2.8,1.6,4.7
		c-0.3,1.5-0.7,2.9-0.7,4.4C407.3,222.4,407.1,222.6,400.9,221.5z"/>
	<path class="st5" d="M411.3,166.5c-0.1-3.6,2.2-5.3,4.1-7.2c1.5-1.6,3.1-0.6,4.5,0.1c1.3,0.6,2.1,1.8,1.6,3.2
		c-0.5,1.5-1.8,2.5-3.4,2.4C415.9,164.9,413.8,165.9,411.3,166.5z"/>
	<path class="st5" d="M412,231c0.2-3.7-4.4-2.5-5.5-5.5c3.3,0.2,7-3.1,9.1,1.3C417.1,229.7,414.9,231,412,231
		C412,231,412,231,412,231z"/>
	<path class="st5" d="M409.6,187.9c0-5.9,0-11.8,0-17.7c0.3,0,0.6,0,0.9,0c0,5.9,0,11.8,0,17.7C410.2,187.9,409.9,187.9,409.6,187.9
		z"/>
	<path class="st23" d="M376.2,223c-4.8-1-10.4-0.2-13-5.9C367.6,218.8,372.3,219.9,376.2,223z"/>
	<path class="st5" d="M398,227l-0.5,0c0,0-0.5,0-0.5,0c1-4.1,3-3.2,5.6-1.2C401.3,227.7,399.5,226.7,398,227z"/>
	<path class="st5" d="M416.3,149.5c-1.6,1.9-3.2,2.6-5.3,1.6c-0.3-0.1-0.4-1.1-0.3-1.2C412.5,148.6,414.3,149,416.3,149.5z"/>
	<path class="st5" d="M380.1,165.8c-2.1,1.6-3.5,1.4-5.5,0.1C376.4,164.7,377.9,165,380.1,165.8z"/>
	<path class="st17" d="M486.5,191.5c0-6.6,0-13.2,0-19.8c0-1.6,0.4-3.3-1.8-4c-6.8-2.1-13.5-3.3-20.6-0.7c-3.5,1.3-7.7,1.6-11.5-0.4
		c-1.5-1.5-3.5-1.9-5.5-1.7c-6.9,0.5-13.8,1.8-20.8,0.5c-0.8,0.1-1.6,0.2-2.5,0.3c-7,0.7-8.6,2.4-9,9.3c-0.1,0.8-0.1,1.7-0.1,2.5
		c-0.4,17.1,0.7,34.1,1.8,51.1c0.1,1.6-0.1,2.9-0.6,4.3c1,6.4,3.3,12.6,3.7,19.2c4,4.4,1.5,8.9,0.3,13.3c-0.1,0.5-0.1,1,0,1.4
		c0.9,4.3,4.5,8.7-0.1,13c-1.1,3.3-0.2,6.8-0.6,10.2c-0.1,1.6,0.3,3.6-1.7,4.2c-1.7,0.6-2.7-0.9-3.8-1.8c-1.7-1.6-3.4-3.2-4-5.6
		c-1.1-1.9-2.5-3.4-5-2.8c0,0-0.1,0-0.1,0.1c0.2-0.1,0.4-0.3,0.6-0.4c0.5-0.9,0.5-1.9,0.2-2.9c-4-6.4-10.9-10.5-14-17.6
		c-11.4-12.2-18.9-27.5-30.5-39.6c-0.4-0.8-0.9-1.6-1.5-2.3c-1.5-2-2.4-4.4-3.8-6.4c-3-3.6-5.3-7.7-8.1-11.3
		c-7.1-9.2-15-17.8-20.5-28.1c-2.7-1.3-2.3-4.7-4.4-6.5c-0.8-0.1-1.9,0-2.4-0.5c-4.8-5.4-11.2-4.7-17.4-4.6c-0.5,2.2-2.2,1.9-3.8,2
		c-2.4,0-4.8,0.1-7.2,0.1c-9.4,2.7-18.9,3.4-28.6,3c-7.7-0.3-7.8-0.1-10.3,7c0,4,0,8,0,11.9c1.8,3.2,0.1,6.5,0.5,9.7
		c1.3,10.1,2.1,20.3,1.4,30.5c0,0.7,0,1.4,0.2,2.1c-0.4,0.3-0.7,0.7-0.9,1.2c-0.4,1.1-0.5,2.2-0.4,3.4c1.1,11.4,1.6,22.8,1.8,34.2
		c0.1,6.6-0.8,13.2,1.3,19.7c0.9,2.6,0.6,5.6,0,8.4c-2.9,14.7-1.9,29.6-2.3,44.5c1.9,10.4-0.1,20.6-1.4,30.8c0,7.7,0,15.3-0.1,23
		c-3.2,10.7,0.1,16,9,15.6c13.4-0.6,26.9-0.3,40.3-0.1c5.6,0.1,11.2,0.4,16.9,0c2.4-0.2,4.6-0.8,5-3.2c1-6,2.7-12.1-0.7-17.9
		c-0.6-0.3-1.1-0.5-1.6-0.5c0,0,0,0,0-0.1c0-8.7,0.1-17.3,0.1-26c0-7.6,0-15.3,0-22.9c2.5-3.1,2-6.6,1.1-10.1
		c-0.3-0.4-0.5-0.7-0.8-0.9c0-15.4,0.1-30.7,0.1-46.1c2.2-1.2,2.3,0.7,3.1,1.9c4,5.6,8.3,10.9,12.9,16.1c2,0.3,3,1.9,4.1,3.3
		c4.3,5.3,8.5,10.7,11.8,16.7c5.1,0.5,5.1-2.6,5-5.8c1,0.4,2,0.8,3.1,0.8c6.6,0.4,6.5,0.4,6.8,7.2c0.1,2.7-0.6,5.8,2.2,7.6
		c-1.2,0.5-1.6,1.6-1.6,3.1c0.1,1.8-0.6,3.1-1.5,4.4c-0.7,2.4,1.1,3.6,2.5,5c3.5-0.6,3.2,2.7,4.7,4.2c6.8,6.9,11.5,15.4,17.6,22.8
		c3.3,4,8.1,7,10.2,11.4c4.7,10,11.7,17.8,19.6,25.2c2.1,2,4,2.4,6.5,2.4c16.4,0,32.9,0,49.3,0.1c1,0,2,0,3-0.1
		c4.9-3.4,3.3-8.9,3.3-13.3c0.3-40.7,0.7-81.5-0.1-122.2c-0.3-18.5,1.1-36.8,0.7-55.3c0-1.7,0.1-3.4,0.6-4.9
		C488.8,206.1,486.6,198.8,486.5,191.5z M313.7,268.1c2-0.4,4-0.3,5.9-0.6c-1.1,1.1-2.4,1.9-3.8,2.5c-4.6,2-8.1,5.1-9.5,10.1
		c-0.2,0.5-0.4,1-0.8,1.4c-0.1-0.2-0.1-0.3-0.1-0.5C303.7,273.7,306.3,269.6,313.7,268.1z M308,317.9c2.6-10,1.7-20.8,0.8-31.7
		c1.7,1.1,1.4,3,1.5,4.8c0.2,6.6,0,13.2,0.1,19.8c0,1.8,0,3.6,0.7,5.2C309.3,316.3,308.4,317.6,308,317.9z M353.2,306.1
		c0.2-1.7-0.7-3.6-2.4-3.8c-3.8-0.4-4.9-2.5-4.9-5.9c0-0.5-0.1-0.9-0.2-1.4c4.8,4.1,9.4,8.3,9.1,15.5
		C353.7,309.4,353,308,353.2,306.1z M372.9,255.8c-0.1,0.1-0.1,0.1-0.2,0.2 M387.8,346c-1.5-0.5-2.9-0.3-4,0.8
		c-0.1-0.2-0.2-0.5-0.4-0.7c1.1-2.6-0.7-4.7-1.9-6.9c-2-3.9-2.1-3.9-0.9-6.8c0.3,0.2,0.5,0.4,0.7,0.7c0.3,0.4,0.4,0.9,0.5,1.4
		c0.7,5.4,2.5,9.8,6.9,11.8C388.4,346.2,388.1,346.2,387.8,346z M392.8,282.5c0.1-0.1,0.3-0.3,0.4-0.4"/>
	<path class="st5" d="M264,127.7c-0.3,0.4-0.7,1.4-1.2,1.6c-0.9,0.2-1.3-0.7-1.3-1.5c0-0.8,0.2-1.7,1.2-1.8
		C263.5,125.8,264,126.4,264,127.7z"/>
	<path class="st5" d="M134.9,122.8c-0.6-3.2-0.8-5.6,1.6-7.3c0.6-0.4,1.5,0,1.6,0.6C138.8,118.9,137.5,120.8,134.9,122.8z"/>
	<path class="st5" d="M161.6,82.8c2.3,2.9,3.5,4.7,2.3,7.1c-0.4,0.8-1.3,1.2-2.1,0.6C159,88.3,162,86.3,161.6,82.8z"/>
	<path class="st5" d="M174.2,76.7c-0.1,1.1-0.5,1.9-1.7,2c-1,0.1-1.6-0.5-1.6-1.4c-0.1-1,0.9-1.3,1.6-1.6
		C173.4,75.4,174,75.7,174.2,76.7z"/>
	<path class="st2" d="M370.4,54.8c0.1-1,0.7-1.4,1.7-1.4c1.2,0,1.9,0.6,1.9,1.8c0,1.2-0.6,1.9-1.8,1.7C371,56.7,370.5,56,370.4,54.8
		z"/>
	<path class="st3" d="M439.9,150.4c1.6,1.7,1.3,3.1,0.7,4.8C439.1,153.8,438.7,152.5,439.9,150.4z"/>
	<path class="st24" d="M322.2,282.9c0.1-1.8,1.3-4.2,2.4-1.9c3.3,6.9,9.3,11.6,13.2,17.9c0.3,0.5,0.2,1.3,0.3,1.9
		c-2.7,0.2-4.6-0.4-5.3-3.6c-0.5-2.1-2.1-4.1-3.7-5.6C326.4,289,324.7,285.7,322.2,282.9z"/>
	<path class="st5" d="M246.3,318.8c-0.3,0.3-0.7,0.7-1,1c-2.2-4.6-2.2-9.5-2-14.5c0-1.1,0.1-2.7,1.5-2.6c1.4,0.1,1.4,1.6,1.4,2.7
		C246.3,310,246.3,314.4,246.3,318.8z"/>
	<path class="st5" d="M213,78.9c-0.2,1.4-0.5,2.8-2.1,3c-1.9,0.2-2.5-1.3-2.6-2.9c0-1.5,0-3.3,2-3.3C212.2,75.7,212.5,77.6,213,78.9
		z"/>
	<path class="st17" d="M339.3,292.9c-2.5-1.5-4-2.4-5.5-3.3c-1.1-0.7-1.8-1.7-0.6-2.8c1.1-1.2,2.6-1,3.4,0.3
		C337.5,288.5,338,290.2,339.3,292.9z"/>
</g>
</svg>
